<?xml version="1.0" encoding="UTF-8"?>
<!DOCTYPE svg PUBLIC "-//W3C//DTD SVG 1.1//EN" "http://www.w3.org/Graphics/SVG/1.1/DTD/svg11.dtd">
<svg xmlns="http://www.w3.org/2000/svg" version="1.1" width="800px" height="800px" style="shape-rendering:geometricPrecision; text-rendering:geometricPrecision; image-rendering:optimizeQuality; fill-rule:evenodd; clip-rule:evenodd" xmlns:xlink="http://www.w3.org/1999/xlink">
<g><path style="opacity:1" fill="#7f2a7e" d="M -0.5,-0.5 C 25.5,-0.5 51.5,-0.5 77.5,-0.5C 77.7057,82.5034 77.3724,165.503 76.5,248.5C 73.8333,248.5 71.1667,248.5 68.5,248.5C 68.5,251.167 68.5,253.833 68.5,256.5C 71.1667,256.5 73.8333,256.5 76.5,256.5C 76.3227,260.234 76.6561,263.901 77.5,267.5C 51.5,267.5 25.5,267.5 -0.5,267.5C -0.5,178.167 -0.5,88.8333 -0.5,-0.5 Z"/></g>
<g><path style="opacity:1" fill="#80277b" d="M 77.5,-0.5 C 290.167,-0.5 502.833,-0.5 715.5,-0.5C 715.924,39.7551 716.257,80.0884 716.5,120.5C 717.833,120.5 719.167,120.5 720.5,120.5C 720.5,122.833 720.5,125.167 720.5,127.5C 717.178,127.489 715.511,129.155 715.5,132.5C 715.662,136.326 717.662,137.993 721.5,137.5C 721.5,139.833 721.5,142.167 721.5,144.5C 719.833,144.5 718.167,144.5 716.5,144.5C 716.5,159.167 716.5,173.833 716.5,188.5C 717.833,188.5 719.167,188.5 720.5,188.5C 721.607,209.781 721.607,231.114 720.5,252.5C 719.167,252.5 717.833,252.5 716.5,252.5C 716.5,255.167 716.5,257.833 716.5,260.5C 721.833,260.5 727.167,260.5 732.5,260.5C 732.5,259.167 732.5,257.833 732.5,256.5C 736.6,255.74 737.6,257.073 735.5,260.5C 735.39,262.374 736.056,263.874 737.5,265C 734.86,265.839 732.527,265.339 730.5,263.5C 727.242,264.893 723.908,266.06 720.5,267C 674.998,267.167 629.665,267.667 584.5,268.5C 584.167,268.5 583.833,268.5 583.5,268.5C 579.221,260.719 573.554,254.052 566.5,248.5C 561.48,242.151 556.147,236.151 550.5,230.5C 540.265,222.696 529.932,214.863 519.5,207C 518.167,206.667 516.833,206.333 515.5,206C 503.509,197.502 490.509,191.002 476.5,186.5C 474.52,184.549 472.187,183.049 469.5,182C 456.201,177.541 442.534,175.041 428.5,174.5C 427.833,174.5 427.167,174.5 426.5,174.5C 425.571,173.685 424.571,172.852 423.5,172C 407.833,171.333 392.167,171.333 376.5,172C 374.942,172.21 373.609,172.71 372.5,173.5C 372.167,173.5 371.833,173.5 371.5,173.5C 358.674,174.202 346.007,176.202 333.5,179.5C 332.807,180.518 332.141,181.518 331.5,182.5C 325.846,182.858 320.846,184.524 316.5,187.5C 316.158,188.338 315.492,188.672 314.5,188.5C 311.455,189.279 308.789,190.613 306.5,192.5C 305.833,192.5 305.167,192.5 304.5,192.5C 300.342,193.672 296.675,195.672 293.5,198.5C 291.833,199.167 290.167,199.833 288.5,200.5C 280.935,203.109 274.602,207.443 269.5,213.5C 267.847,213.66 266.514,214.326 265.5,215.5C 258.703,219.795 252.037,224.295 245.5,229C 244.809,230.067 244.309,231.234 244,232.5C 239.236,236.925 234.902,241.592 231,246.5C 225.791,249.933 222.291,254.6 220.5,260.5C 216.783,261.92 214.45,264.587 213.5,268.5C 213.167,268.5 212.833,268.5 212.5,268.5C 167.67,267.501 122.67,267.168 77.5,267.5C 76.6561,263.901 76.3227,260.234 76.5,256.5C 73.8333,256.5 71.1667,256.5 68.5,256.5C 68.5,253.833 68.5,251.167 68.5,248.5C 71.1667,248.5 73.8333,248.5 76.5,248.5C 77.3724,165.503 77.7057,82.5034 77.5,-0.5 Z"/></g>
<g><path style="opacity:1" fill="#7f2a7e" d="M 715.5,-0.5 C 743.5,-0.5 771.5,-0.5 799.5,-0.5C 799.5,89.1667 799.5,178.833 799.5,268.5C 727.833,268.5 656.167,268.5 584.5,268.5C 629.665,267.667 674.998,267.167 720.5,267C 723.908,266.06 727.242,264.893 730.5,263.5C 732.527,265.339 734.86,265.839 737.5,265C 736.056,263.874 735.39,262.374 735.5,260.5C 737.6,257.073 736.6,255.74 732.5,256.5C 732.5,257.833 732.5,259.167 732.5,260.5C 727.167,260.5 721.833,260.5 716.5,260.5C 716.5,257.833 716.5,255.167 716.5,252.5C 717.833,252.5 719.167,252.5 720.5,252.5C 721.607,231.114 721.607,209.781 720.5,188.5C 719.167,188.5 717.833,188.5 716.5,188.5C 716.5,173.833 716.5,159.167 716.5,144.5C 718.167,144.5 719.833,144.5 721.5,144.5C 721.5,142.167 721.5,139.833 721.5,137.5C 717.662,137.993 715.662,136.326 715.5,132.5C 715.511,129.155 717.178,127.489 720.5,127.5C 720.5,125.167 720.5,122.833 720.5,120.5C 719.167,120.5 717.833,120.5 716.5,120.5C 716.257,80.0884 715.924,39.7551 715.5,-0.5 Z"/></g>
<g><path style="opacity:1" fill="#962367" d="M 426.5,174.5 C 421.807,174.46 417.141,174.127 412.5,173.5C 399.318,172.253 385.984,172.253 372.5,173.5C 373.609,172.71 374.942,172.21 376.5,172C 392.167,171.333 407.833,171.333 423.5,172C 424.571,172.852 425.571,173.685 426.5,174.5 Z"/></g>
<g><path style="opacity:1" fill="#d11b35" d="M 412.5,173.5 C 417.141,174.127 421.807,174.46 426.5,174.5C 427.167,174.5 427.833,174.5 428.5,174.5C 444.6,177.858 460.6,181.858 476.5,186.5C 490.509,191.002 503.509,197.502 515.5,206C 516.833,206.333 518.167,206.667 519.5,207C 529.932,214.863 540.265,222.696 550.5,230.5C 554.726,237.398 560.059,243.398 566.5,248.5C 573.554,254.052 579.221,260.719 583.5,268.5C 583.025,271.313 584.025,273.313 586.5,274.5C 588.326,276.147 589.66,278.147 590.5,280.5C 590.725,283.546 592.058,285.879 594.5,287.5C 596.54,291.191 598.54,294.857 600.5,298.5C 602.276,305.686 604.942,312.353 608.5,318.5C 610.241,320.395 611.241,322.728 611.5,325.5C 612.565,331.36 614.232,337.027 616.5,342.5C 618.305,354.241 620.305,365.907 622.5,377.5C 623.491,384.313 623.825,391.313 623.5,398.5C 623.167,398.5 622.833,398.5 622.5,398.5C 612.5,398.5 602.5,398.5 592.5,398.5C 592.665,388.467 592.165,378.467 591,368.5C 590.878,366.563 590.045,365.23 588.5,364.5C 588.932,361.123 588.265,358.123 586.5,355.5C 585.881,348.011 583.881,341.011 580.5,334.5C 580.5,333.833 580.5,333.167 580.5,332.5C 580.5,331.833 580.5,331.167 580.5,330.5C 580.357,327.615 579.357,325.282 577.5,323.5C 577.5,322.833 577.167,322.5 576.5,322.5C 576.657,321.127 576.49,319.793 576,318.5C 575.098,316.569 573.931,314.903 572.5,313.5C 572.345,310.132 571.012,307.465 568.5,305.5C 568.573,303.973 567.906,302.973 566.5,302.5C 566.275,299.454 564.942,297.121 562.5,295.5C 559.27,289.273 555.27,283.607 550.5,278.5C 549.581,275.911 547.914,273.911 545.5,272.5C 544.853,270.859 543.853,269.526 542.5,268.5C 538.812,262.812 534.145,258.145 528.5,254.5C 526.736,253.674 525.402,252.341 524.5,250.5C 524.5,249.5 524.5,248.5 524.5,247.5C 520.674,247.203 517.674,245.37 515.5,242C 511.409,239.03 507.076,236.53 502.5,234.5C 496.732,230.727 490.732,227.394 484.5,224.5C 476.309,221.054 468.309,217.721 460.5,214.5C 460.196,213.85 459.863,213.183 459.5,212.5C 450.699,209.94 441.699,208.273 432.5,207.5C 429.051,206.03 425.384,204.864 421.5,204C 408.993,203.173 396.66,203.34 384.5,204.5C 384.167,204.5 383.833,204.5 383.5,204.5C 375.846,205.07 368.179,205.404 360.5,205.5C 360.5,206.5 360.5,207.5 360.5,208.5C 351.358,209.933 342.358,212.1 333.5,215C 331.242,215.876 329.242,217.043 327.5,218.5C 324.753,219.966 321.753,220.799 318.5,221C 317.944,221.383 317.611,221.883 317.5,222.5C 309.155,225.841 301.155,230.007 293.5,235C 291.937,235.759 290.937,236.926 290.5,238.5C 286.637,240.85 282.637,243.016 278.5,245C 277.29,246.039 276.29,247.206 275.5,248.5C 273.685,249.63 271.685,250.296 269.5,250.5C 269.649,251.552 269.483,252.552 269,253.5C 264.932,256.066 261.765,259.399 259.5,263.5C 258.512,264.795 257.512,266.128 256.5,267.5C 254.566,268.11 252.899,269.11 251.5,270.5C 248.561,270.918 246.228,272.418 244.5,275C 245.022,275.561 245.355,276.228 245.5,277C 244.586,278.406 243.92,279.906 243.5,281.5C 241.518,283.502 239.852,285.835 238.5,288.5C 235.931,291.961 233.597,295.628 231.5,299.5C 229.907,300.348 228.74,301.681 228,303.5C 227.517,304.448 227.351,305.448 227.5,306.5C 225.051,312.393 222.384,318.06 219.5,323.5C 214.312,331.654 211.312,340.654 210.5,350.5C 209.784,355.349 208.784,360.015 207.5,364.5C 206.252,368.759 205.086,373.093 204,377.5C 203.5,383.825 203.334,390.158 203.5,396.5C 194.167,396.5 184.833,396.5 175.5,396.5C 175.334,386.828 175.5,377.161 176,367.5C 176.884,360.586 178.551,353.919 181,347.5C 181.465,343.152 181.965,338.819 182.5,334.5C 182.5,333.833 182.5,333.167 182.5,332.5C 184.9,324.878 187.9,317.545 191.5,310.5C 192.117,310.389 192.617,310.056 193,309.5C 193.44,307.134 193.94,304.801 194.5,302.5C 194.5,302.167 194.5,301.833 194.5,301.5C 195.5,301.5 196.5,301.5 197.5,301.5C 197.448,299.097 197.781,296.764 198.5,294.5C 199.6,293.395 200.267,292.062 200.5,290.5C 204.465,286.636 207.132,281.969 208.5,276.5C 211.833,274.841 213.5,272.175 213.5,268.5C 214.45,264.587 216.783,261.92 220.5,260.5C 225.936,255.566 230.436,249.899 234,243.5C 238.833,239.333 243.333,234.833 247.5,230C 251.485,227.335 255.485,224.668 259.5,222C 261.706,219.963 263.706,217.797 265.5,215.5C 266.514,214.326 267.847,213.66 269.5,213.5C 275.707,208.903 282.041,204.57 288.5,200.5C 290.167,199.833 291.833,199.167 293.5,198.5C 297.644,197.263 301.311,195.263 304.5,192.5C 305.167,192.5 305.833,192.5 306.5,192.5C 309.868,192.345 312.535,191.012 314.5,188.5C 315.492,188.672 316.158,188.338 316.5,187.5C 321.694,186.28 326.694,184.613 331.5,182.5C 336.184,181.486 340.851,180.486 345.5,179.5C 358.556,178.176 371.556,176.343 384.5,174C 393.827,173.5 403.161,173.334 412.5,173.5 Z"/></g>
<g><path style="opacity:1" fill="#c01f46" d="M 412.5,173.5 C 403.161,173.334 393.827,173.5 384.5,174C 371.556,176.343 358.556,178.176 345.5,179.5C 354.079,177.118 362.745,175.118 371.5,173.5C 371.833,173.5 372.167,173.5 372.5,173.5C 385.984,172.253 399.318,172.253 412.5,173.5 Z"/></g>
<g><path style="opacity:1" fill="#992366" d="M 428.5,174.5 C 442.534,175.041 456.201,177.541 469.5,182C 472.187,183.049 474.52,184.549 476.5,186.5C 460.6,181.858 444.6,177.858 428.5,174.5 Z"/></g>
<g><path style="opacity:1" fill="#92236c" d="M 371.5,173.5 C 362.745,175.118 354.079,177.118 345.5,179.5C 340.851,180.486 336.184,181.486 331.5,182.5C 332.141,181.518 332.807,180.518 333.5,179.5C 346.007,176.202 358.674,174.202 371.5,173.5 Z"/></g>
<g><path style="opacity:1" fill="#9d2162" d="M 331.5,182.5 C 326.694,184.613 321.694,186.28 316.5,187.5C 320.846,184.524 325.846,182.858 331.5,182.5 Z"/></g>
<g><path style="opacity:1" fill="#b12154" d="M 314.5,188.5 C 312.535,191.012 309.868,192.345 306.5,192.5C 308.789,190.613 311.455,189.279 314.5,188.5 Z"/></g>
<g><path style="opacity:1" fill="#a4225c" d="M 304.5,192.5 C 301.311,195.263 297.644,197.263 293.5,198.5C 296.675,195.672 300.342,193.672 304.5,192.5 Z"/></g>
<g><path style="opacity:1" fill="#a3215e" d="M 288.5,200.5 C 282.041,204.57 275.707,208.903 269.5,213.5C 274.602,207.443 280.935,203.109 288.5,200.5 Z"/></g>
<g><path style="opacity:1" fill="#c21f46" d="M 384.5,204.5 C 396.66,203.34 408.993,203.173 421.5,204C 425.384,204.864 429.051,206.03 432.5,207.5C 416.608,204.98 400.608,203.98 384.5,204.5 Z"/></g>
<g><path style="opacity:1" fill="#c01f46" d="M 383.5,204.5 C 375.978,206.007 368.311,207.34 360.5,208.5C 360.5,207.5 360.5,206.5 360.5,205.5C 368.179,205.404 375.846,205.07 383.5,204.5 Z"/></g>
<g><path style="opacity:1" fill="#80277b" d="M 456.5,214.5 C 457.833,214.5 459.167,214.5 460.5,214.5C 468.309,217.721 476.309,221.054 484.5,224.5C 484.5,225.5 484.5,226.5 484.5,227.5C 487.049,228.509 489.715,229.342 492.5,230C 495.892,232.694 499.559,234.86 503.5,236.5C 510.92,240.434 517.92,245.1 524.5,250.5C 525.402,252.341 526.736,253.674 528.5,254.5C 532.5,258.833 536.5,263.167 540.5,267.5C 445.833,267.5 351.167,267.5 256.5,267.5C 257.512,266.128 258.512,264.795 259.5,263.5C 265.515,259.149 270.849,254.149 275.5,248.5C 276.29,247.206 277.29,246.039 278.5,245C 282.637,243.016 286.637,240.85 290.5,238.5C 296.077,235.747 301.743,233.247 307.5,231C 311.056,228.265 314.39,225.432 317.5,222.5C 317.611,221.883 317.944,221.383 318.5,221C 321.753,220.799 324.753,219.966 327.5,218.5C 342.174,214.731 356.508,211.231 370.5,208C 399.59,204.721 428.257,206.887 456.5,214.5 Z"/></g>
<g><path style="opacity:1" fill="#c01d45" d="M 432.5,207.5 C 441.699,208.273 450.699,209.94 459.5,212.5C 459.863,213.183 460.196,213.85 460.5,214.5C 459.167,214.5 457.833,214.5 456.5,214.5C 456.389,213.883 456.056,213.383 455.5,213C 447.719,211.301 440.053,209.467 432.5,207.5 Z"/></g>
<g><path style="opacity:1" fill="#932369" d="M 383.5,204.5 C 383.833,204.5 384.167,204.5 384.5,204.5C 400.608,203.98 416.608,204.98 432.5,207.5C 440.053,209.467 447.719,211.301 455.5,213C 456.056,213.383 456.389,213.883 456.5,214.5C 428.257,206.887 399.59,204.721 370.5,208C 356.508,211.231 342.174,214.731 327.5,218.5C 329.242,217.043 331.242,215.876 333.5,215C 342.358,212.1 351.358,209.933 360.5,208.5C 368.311,207.34 375.978,206.007 383.5,204.5 Z"/></g>
<g><path style="opacity:1" fill="#90246d" d="M 317.5,222.5 C 314.39,225.432 311.056,228.265 307.5,231C 301.743,233.247 296.077,235.747 290.5,238.5C 290.937,236.926 291.937,235.759 293.5,235C 301.155,230.007 309.155,225.841 317.5,222.5 Z"/></g>
<g><path style="opacity:1" fill="#992165" d="M 484.5,224.5 C 490.732,227.394 496.732,230.727 502.5,234.5C 502.833,235.167 503.167,235.833 503.5,236.5C 499.559,234.86 495.892,232.694 492.5,230C 489.715,229.342 487.049,228.509 484.5,227.5C 484.5,226.5 484.5,225.5 484.5,224.5 Z"/></g>
<g><path style="opacity:1" fill="#bc1e4e" d="M 550.5,230.5 C 556.147,236.151 561.48,242.151 566.5,248.5C 560.059,243.398 554.726,237.398 550.5,230.5 Z"/></g>
<g><path style="opacity:1" fill="#bc1e49" d="M 502.5,234.5 C 507.076,236.53 511.409,239.03 515.5,242C 517.674,245.37 520.674,247.203 524.5,247.5C 524.5,248.5 524.5,249.5 524.5,250.5C 517.92,245.1 510.92,240.434 503.5,236.5C 503.167,235.833 502.833,235.167 502.5,234.5 Z"/></g>
<g><path style="opacity:1" fill="#a5215c" d="M 265.5,215.5 C 263.706,217.797 261.706,219.963 259.5,222C 255.485,224.668 251.485,227.335 247.5,230C 243.333,234.833 238.833,239.333 234,243.5C 230.436,249.899 225.936,255.566 220.5,260.5C 222.291,254.6 225.791,249.933 231,246.5C 234.902,241.592 239.236,236.925 244,232.5C 244.309,231.234 244.809,230.067 245.5,229C 252.037,224.295 258.703,219.795 265.5,215.5 Z"/></g>
<g><path style="opacity:1" fill="#b4204d" d="M 528.5,254.5 C 534.145,258.145 538.812,262.812 542.5,268.5C 541.833,268.5 541.167,268.5 540.5,268.5C 540.5,268.167 540.5,267.833 540.5,267.5C 536.5,263.167 532.5,258.833 528.5,254.5 Z"/></g>
<g><path style="opacity:1" fill="#b22050" d="M 275.5,248.5 C 270.849,254.149 265.515,259.149 259.5,263.5C 261.765,259.399 264.932,256.066 269,253.5C 269.483,252.552 269.649,251.552 269.5,250.5C 271.685,250.296 273.685,249.63 275.5,248.5 Z"/></g>
<g><path style="opacity:1" fill="#683384" d="M -0.5,268.5 C -0.5,268.167 -0.5,267.833 -0.5,267.5C 25.5,267.5 51.5,267.5 77.5,267.5C 122.67,267.168 167.67,267.501 212.5,268.5C 212.737,269.791 212.404,270.791 211.5,271.5C 211.5,270.5 211.5,269.5 211.5,268.5C 140.833,268.5 70.1667,268.5 -0.5,268.5 Z"/></g>
<g><path style="opacity:1" fill="#693281" d="M 256.5,267.5 C 351.167,267.5 445.833,267.5 540.5,267.5C 540.5,267.833 540.5,268.167 540.5,268.5C 445.499,268.333 350.499,268.5 255.5,269C 254.944,269.383 254.611,269.883 254.5,270.5C 253.391,270.557 252.391,270.89 251.5,271.5C 251.5,271.167 251.5,270.833 251.5,270.5C 252.899,269.11 254.566,268.11 256.5,267.5 Z"/></g>
<g><path style="opacity:1" fill="#3d4992" d="M 584.5,268.5 C 656.167,268.5 727.833,268.5 799.5,268.5C 799.5,268.833 799.5,269.167 799.5,269.5C 727.826,268.837 656.492,269.503 585.5,271.5C 584.596,270.791 584.263,269.791 584.5,268.5 Z"/></g>
<g><path style="opacity:1" fill="#2b569b" d="M -0.5,268.5 C 70.1667,268.5 140.833,268.5 211.5,268.5C 211.5,269.5 211.5,270.5 211.5,271.5C 211.5,272.167 211.167,272.5 210.5,272.5C 140.508,270.503 70.1746,269.837 -0.5,270.5C -0.5,269.833 -0.5,269.167 -0.5,268.5 Z"/></g>
<g><path style="opacity:1" fill="#2f539a" d="M 540.5,268.5 C 541.167,268.5 541.833,268.5 542.5,268.5C 543.853,269.526 544.853,270.859 545.5,272.5C 448.644,270.51 351.644,269.844 254.5,270.5C 254.611,269.883 254.944,269.383 255.5,269C 350.499,268.5 445.499,268.333 540.5,268.5 Z"/></g>
<g><path style="opacity:1" fill="#bd2543" d="M 251.5,270.5 C 251.5,270.833 251.5,271.167 251.5,271.5C 248.395,274.592 245.729,277.925 243.5,281.5C 243.92,279.906 244.586,278.406 245.5,277C 245.355,276.228 245.022,275.561 244.5,275C 246.228,272.418 248.561,270.918 251.5,270.5 Z"/></g>
<g><path style="opacity:1" fill="#1662a5" d="M 799.5,269.5 C 799.5,269.833 799.5,270.167 799.5,270.5C 775.818,270.784 752.152,271.45 728.5,272.5C 725.774,272.318 723.107,271.818 720.5,271C 698.167,270.833 675.833,270.667 653.5,270.5C 630.823,270.5 608.49,271.167 586.5,272.5C 585.833,272.5 585.5,272.167 585.5,271.5C 656.492,269.503 727.826,268.837 799.5,269.5 Z"/></g>
<g><path style="opacity:1" fill="#036bab" d="M 799.5,270.5 C 799.5,291.167 799.5,311.833 799.5,332.5C 737.833,332.5 676.167,332.5 614.5,332.5C 613.131,330.268 612.131,327.934 611.5,325.5C 611.241,322.728 610.241,320.395 608.5,318.5C 607.323,313.485 605.823,308.485 604,303.5C 603.098,301.569 601.931,299.903 600.5,298.5C 598.54,294.857 596.54,291.191 594.5,287.5C 593.532,284.9 592.199,282.566 590.5,280.5C 589.66,278.147 588.326,276.147 586.5,274.5C 586.5,273.833 586.5,273.167 586.5,272.5C 608.49,271.167 630.823,270.5 653.5,270.5C 675.833,270.667 698.167,270.833 720.5,271C 723.107,271.818 725.774,272.318 728.5,272.5C 752.152,271.45 775.818,270.784 799.5,270.5 Z"/></g>
<g><path style="opacity:1" fill="#026baa" d="M -0.5,270.5 C 70.1746,269.837 140.508,270.503 210.5,272.5C 209.4,273.605 208.733,274.938 208.5,276.5C 205.557,280.923 202.891,285.59 200.5,290.5C 200.267,292.062 199.6,293.395 198.5,294.5C 196.801,296.566 195.468,298.9 194.5,301.5C 194.5,301.833 194.5,302.167 194.5,302.5C 193.883,302.611 193.383,302.944 193,303.5C 192.56,305.866 192.06,308.199 191.5,310.5C 187.9,317.545 184.9,324.878 182.5,332.5C 121.5,332.5 60.5,332.5 -0.5,332.5C -0.5,311.833 -0.5,291.167 -0.5,270.5 Z"/></g>
<g><path style="opacity:1" fill="#a13053" d="M 212.5,268.5 C 212.833,268.5 213.167,268.5 213.5,268.5C 213.5,272.175 211.833,274.841 208.5,276.5C 208.733,274.938 209.4,273.605 210.5,272.5C 211.167,272.5 211.5,272.167 211.5,271.5C 212.404,270.791 212.737,269.791 212.5,268.5 Z"/></g>
<g><path style="opacity:1" fill="#026baa" d="M 254.5,270.5 C 351.644,269.844 448.644,270.51 545.5,272.5C 546.419,275.089 548.086,277.089 550.5,278.5C 552.425,282.433 554.258,286.433 556,290.5C 557.527,293.012 559.694,294.679 562.5,295.5C 563.468,298.1 564.801,300.434 566.5,302.5C 567.906,302.973 568.573,303.973 568.5,305.5C 569.541,308.391 570.874,311.058 572.5,313.5C 573.06,315.801 573.56,318.134 574,320.5C 574.708,321.381 575.542,322.047 576.5,322.5C 577.167,322.5 577.5,322.833 577.5,323.5C 577.887,326.206 578.887,328.539 580.5,330.5C 580.5,331.167 580.5,331.833 580.5,332.5C 459.167,332.5 337.833,332.5 216.5,332.5C 217.77,329.618 218.77,326.618 219.5,323.5C 222.384,318.06 225.051,312.393 227.5,306.5C 229.572,304.65 230.905,302.317 231.5,299.5C 233.597,295.628 235.931,291.961 238.5,288.5C 241.328,287.004 242.994,284.671 243.5,281.5C 245.729,277.925 248.395,274.592 251.5,271.5C 252.391,270.89 253.391,270.557 254.5,270.5 Z"/></g>
<g><path style="opacity:1" fill="#a92b4f" d="M 583.5,268.5 C 583.833,268.5 584.167,268.5 584.5,268.5C 584.263,269.791 584.596,270.791 585.5,271.5C 585.5,272.167 585.833,272.5 586.5,272.5C 586.5,273.167 586.5,273.833 586.5,274.5C 584.025,273.313 583.025,271.313 583.5,268.5 Z"/></g>
<g><path style="opacity:1" fill="#624877" d="M 545.5,272.5 C 547.914,273.911 549.581,275.911 550.5,278.5C 548.086,277.089 546.419,275.089 545.5,272.5 Z"/></g>
<g><path style="opacity:1" fill="#a82b4d" d="M 590.5,280.5 C 592.199,282.566 593.532,284.9 594.5,287.5C 592.058,285.879 590.725,283.546 590.5,280.5 Z"/></g>
<g><path style="opacity:1" fill="#8e375b" d="M 243.5,281.5 C 242.994,284.671 241.328,287.004 238.5,288.5C 239.852,285.835 241.518,283.502 243.5,281.5 Z"/></g>
<g><path style="opacity:1" fill="#a12f4f" d="M 208.5,276.5 C 207.132,281.969 204.465,286.636 200.5,290.5C 202.891,285.59 205.557,280.923 208.5,276.5 Z"/></g>
<g><path style="opacity:1" fill="#4a578c" d="M 550.5,278.5 C 555.27,283.607 559.27,289.273 562.5,295.5C 559.694,294.679 557.527,293.012 556,290.5C 554.258,286.433 552.425,282.433 550.5,278.5 Z"/></g>
<g><path style="opacity:1" fill="#a4314f" d="M 198.5,294.5 C 197.781,296.764 197.448,299.097 197.5,301.5C 196.5,301.5 195.5,301.5 194.5,301.5C 195.468,298.9 196.801,296.566 198.5,294.5 Z"/></g>
<g><path style="opacity:1" fill="#634977" d="M 562.5,295.5 C 564.942,297.121 566.275,299.454 566.5,302.5C 564.801,300.434 563.468,298.1 562.5,295.5 Z"/></g>
<g><path style="opacity:1" fill="#a42d52" d="M 231.5,299.5 C 230.905,302.317 229.572,304.65 227.5,306.5C 227.351,305.448 227.517,304.448 228,303.5C 228.74,301.681 229.907,300.348 231.5,299.5 Z"/></g>
<g><path style="opacity:1" fill="#a72f4c" d="M 600.5,298.5 C 601.931,299.903 603.098,301.569 604,303.5C 605.823,308.485 607.323,313.485 608.5,318.5C 604.942,312.353 602.276,305.686 600.5,298.5 Z"/></g>
<g><path style="opacity:1" fill="#a72f4f" d="M 194.5,302.5 C 193.94,304.801 193.44,307.134 193,309.5C 192.617,310.056 192.117,310.389 191.5,310.5C 192.06,308.199 192.56,305.866 193,303.5C 193.383,302.944 193.883,302.611 194.5,302.5 Z"/></g>
<g><path style="opacity:1" fill="#73426c" d="M 568.5,305.5 C 571.012,307.465 572.345,310.132 572.5,313.5C 570.874,311.058 569.541,308.391 568.5,305.5 Z"/></g>
<g><path style="opacity:1" fill="#674b7c" d="M 572.5,313.5 C 573.931,314.903 575.098,316.569 576,318.5C 576.49,319.793 576.657,321.127 576.5,322.5C 575.542,322.047 574.708,321.381 574,320.5C 573.56,318.134 573.06,315.801 572.5,313.5 Z"/></g>
<g><path style="opacity:1" fill="#92355b" d="M 577.5,323.5 C 579.357,325.282 580.357,327.615 580.5,330.5C 578.887,328.539 577.887,326.206 577.5,323.5 Z"/></g>
<g><path style="opacity:1" fill="#ab343b" d="M 611.5,325.5 C 612.131,327.934 613.131,330.268 614.5,332.5C 614.328,333.492 614.662,334.158 615.5,334.5C 616.461,336.265 616.795,338.265 616.5,340.5C 616.5,341.167 616.5,341.833 616.5,342.5C 614.232,337.027 612.565,331.36 611.5,325.5 Z"/></g>
<g><path style="opacity:1" fill="#1d786c" d="M -0.5,333.5 C -0.5,333.167 -0.5,332.833 -0.5,332.5C 60.5,332.5 121.5,332.5 182.5,332.5C 182.5,333.167 182.5,333.833 182.5,334.5C 181.833,335.5 181.167,336.5 180.5,337.5C 180.5,336.167 180.5,334.833 180.5,333.5C 120.167,333.5 59.8333,333.5 -0.5,333.5 Z"/></g>
<g><path style="opacity:1" fill="#1b7a69" d="M 614.5,332.5 C 676.167,332.5 737.833,332.5 799.5,332.5C 799.5,332.833 799.5,333.167 799.5,333.5C 737.998,333.168 676.664,333.501 615.5,334.5C 614.662,334.158 614.328,333.492 614.5,332.5 Z"/></g>
<g><path style="opacity:1" fill="#34936c" d="M 216.5,332.5 C 337.833,332.5 459.167,332.5 580.5,332.5C 580.5,333.167 580.5,333.833 580.5,334.5C 580.5,334.833 580.5,335.167 580.5,335.5C 459.167,334.167 337.833,334.167 216.5,335.5C 216.5,335.167 216.5,334.833 216.5,334.5C 216.5,333.833 216.5,333.167 216.5,332.5 Z"/></g>
<g><path style="opacity:1" fill="#46a057" d="M -0.5,333.5 C 59.8333,333.5 120.167,333.5 180.5,333.5C 180.5,334.833 180.5,336.167 180.5,337.5C 180.167,337.5 179.833,337.5 179.5,337.5C 119.843,335.504 59.8426,334.837 -0.5,335.5C -0.5,334.833 -0.5,334.167 -0.5,333.5 Z"/></g>
<g><path style="opacity:1" fill="#4aa23d" d="M 580.5,335.5 C 582.293,342.341 584.293,349.008 586.5,355.5C 589.085,369.265 590.085,383.265 589.5,397.5C 462.167,397.5 334.833,397.5 207.5,397.5C 207.334,389.493 207.5,381.493 208,373.5C 209.549,364.023 211.382,354.69 213.5,345.5C 214.508,342.156 215.508,338.823 216.5,335.5C 337.833,334.167 459.167,334.167 580.5,335.5 Z"/></g>
<g><path style="opacity:1" fill="#4b9c44" d="M 615.5,334.5 C 676.664,333.501 737.998,333.168 799.5,333.5C 799.5,335.833 799.5,338.167 799.5,340.5C 798.5,340.5 797.5,340.5 796.5,340.5C 796.5,341.5 796.5,342.5 796.5,343.5C 788.53,345.05 780.53,346.384 772.5,347.5C 772.5,346.5 772.5,345.5 772.5,344.5C 764.647,341.82 756.647,339.32 748.5,337C 745.833,336.667 743.167,336.333 740.5,336C 699.501,335.5 658.501,335.333 617.5,335.5C 618.167,338.167 618.833,340.833 619.5,343.5C 618.728,342.306 617.728,341.306 616.5,340.5C 616.795,338.265 616.461,336.265 615.5,334.5 Z"/></g>
<g><path style="opacity:1" fill="#4ba23d" d="M -0.5,335.5 C 59.8426,334.837 119.843,335.504 179.5,337.5C 179.119,338.931 178.119,339.764 176.5,340C 177.629,346.994 176.795,353.828 174,360.5C 173.501,364.486 173.334,368.486 173.5,372.5C 173.5,372.833 173.5,373.167 173.5,373.5C 172.732,374.263 172.232,375.263 172,376.5C 171.5,383.826 171.334,391.159 171.5,398.5C 114.167,398.5 56.8333,398.5 -0.5,398.5C -0.5,398.167 -0.5,397.833 -0.5,397.5C 27.1918,396.092 54.8585,395.258 82.5,395C 83.938,394.781 85.2713,394.281 86.5,393.5C 84.2846,391.374 83.1179,388.708 83,385.5C 81.2111,383.771 79.0444,383.104 76.5,383.5C 76.2924,381.08 76.6258,378.747 77.5,376.5C 76.6892,365.88 76.1892,355.213 76,344.5C 73.6194,343.565 71.1194,343.232 68.5,343.5C 68.5,342.5 68.5,341.5 68.5,340.5C 58.1292,340.963 47.7959,341.129 37.5,341C 36.6433,341.689 35.9767,342.522 35.5,343.5C 23.5185,344.499 11.5185,344.832 -0.5,344.5C -0.5,341.5 -0.5,338.5 -0.5,335.5 Z"/></g>
<g><path style="opacity:1" fill="#4ba33e" d="M 799.5,340.5 C 799.5,354.833 799.5,369.167 799.5,383.5C 798.5,383.5 797.5,383.5 796.5,383.5C 797.656,376.842 795.156,374.842 789,377.5C 788.505,379.473 788.338,381.473 788.5,383.5C 785.833,383.833 783.167,384.167 780.5,384.5C 780.768,381.881 780.435,379.381 779.5,377C 769.436,376.71 759.436,376.543 749.5,376.5C 749.102,379.024 748.768,381.524 748.5,384C 744.322,385.372 740.155,385.872 736,385.5C 735.242,387.769 735.409,389.936 736.5,392C 743.123,392.422 749.789,392.255 756.5,391.5C 760.554,392.103 764.554,392.936 768.5,394C 766.287,394.626 764.12,394.459 762,393.5C 761.5,393.833 761,394.167 760.5,394.5C 761.729,395.281 763.062,395.781 764.5,396C 776.162,396.5 787.829,396.667 799.5,396.5C 799.5,397.167 799.5,397.833 799.5,398.5C 741.5,398.5 683.5,398.5 625.5,398.5C 625.838,386.457 625.338,374.457 624,362.5C 623.623,361.058 622.79,360.058 621.5,359.5C 621.628,353.97 620.961,348.637 619.5,343.5C 618.833,340.833 618.167,338.167 617.5,335.5C 658.501,335.333 699.501,335.5 740.5,336C 743.167,336.333 745.833,336.667 748.5,337C 756.647,339.32 764.647,341.82 772.5,344.5C 772.5,345.5 772.5,346.5 772.5,347.5C 780.53,346.384 788.53,345.05 796.5,343.5C 796.5,342.5 796.5,341.5 796.5,340.5C 797.5,340.5 798.5,340.5 799.5,340.5 Z"/></g>
<g><path style="opacity:1" fill="#af3436" d="M 219.5,323.5 C 218.77,326.618 217.77,329.618 216.5,332.5C 216.5,333.167 216.5,333.833 216.5,334.5C 214.358,337.8 213.025,341.467 212.5,345.5C 212.598,347.553 211.931,349.22 210.5,350.5C 211.312,340.654 214.312,331.654 219.5,323.5 Z"/></g>
<g><path style="opacity:1" fill="#4ba341" d="M -0.5,397.5 C -0.5,379.833 -0.5,362.167 -0.5,344.5C 11.5185,344.832 23.5185,344.499 35.5,343.5C 35.9767,342.522 36.6433,341.689 37.5,341C 47.7959,341.129 58.1292,340.963 68.5,340.5C 68.5,341.5 68.5,342.5 68.5,343.5C 71.1194,343.232 73.6194,343.565 76,344.5C 76.1892,355.213 76.6892,365.88 77.5,376.5C 76.6258,378.747 76.2924,381.08 76.5,383.5C 79.0444,383.104 81.2111,383.771 83,385.5C 83.1179,388.708 84.2846,391.374 86.5,393.5C 85.2713,394.281 83.938,394.781 82.5,395C 54.8585,395.258 27.1918,396.092 -0.5,397.5 Z"/></g>
<g><path style="opacity:1" fill="#778644" d="M 580.5,334.5 C 583.881,341.011 585.881,348.011 586.5,355.5C 584.293,349.008 582.293,342.341 580.5,335.5C 580.5,335.167 580.5,334.833 580.5,334.5 Z"/></g>
<g><path style="opacity:1" fill="#817a43" d="M 216.5,334.5 C 216.5,334.833 216.5,335.167 216.5,335.5C 215.508,338.823 214.508,342.156 213.5,345.5C 213.167,345.5 212.833,345.5 212.5,345.5C 213.025,341.467 214.358,337.8 216.5,334.5 Z"/></g>
<g><path style="opacity:1" fill="#925d3b" d="M 180.5,340.5 C 180.741,342.898 180.074,344.898 178.5,346.5C 178.259,344.102 178.926,342.102 180.5,340.5 Z"/></g>
<g><path style="opacity:1" fill="#7a8244" d="M 616.5,340.5 C 617.728,341.306 618.728,342.306 619.5,343.5C 620.961,348.637 621.628,353.97 621.5,359.5C 622.15,361.435 622.483,363.435 622.5,365.5C 621.219,357.67 619.219,350.003 616.5,342.5C 616.5,341.833 616.5,341.167 616.5,340.5 Z"/></g>
<g><path style="opacity:1" fill="#6d8d45" d="M 179.5,337.5 C 179.833,337.5 180.167,337.5 180.5,337.5C 180.5,338.5 180.5,339.5 180.5,340.5C 178.926,342.102 178.259,344.102 178.5,346.5C 177.415,350.76 176.748,355.094 176.5,359.5C 175.076,361.515 174.41,363.848 174.5,366.5C 174.5,368.5 174.5,370.5 174.5,372.5C 174.167,372.5 173.833,372.5 173.5,372.5C 173.334,368.486 173.501,364.486 174,360.5C 176.795,353.828 177.629,346.994 176.5,340C 178.119,339.764 179.119,338.931 179.5,337.5 Z"/></g>
<g><path style="opacity:1" fill="#b13433" d="M 616.5,342.5 C 619.219,350.003 621.219,357.67 622.5,365.5C 622.5,367.833 622.5,370.167 622.5,372.5C 622.5,374.167 622.5,375.833 622.5,377.5C 620.305,365.907 618.305,354.241 616.5,342.5 Z"/></g>
<g><path style="opacity:1" fill="#5d9740" d="M 621.5,359.5 C 622.79,360.058 623.623,361.058 624,362.5C 625.338,374.457 625.838,386.457 625.5,398.5C 625.167,398.5 624.833,398.5 624.5,398.5C 624.666,391.159 624.5,383.826 624,376.5C 623.79,374.942 623.29,373.609 622.5,372.5C 622.5,370.167 622.5,367.833 622.5,365.5C 622.483,363.435 622.15,361.435 621.5,359.5 Z"/></g>
<g><path style="opacity:1" fill="#90613e" d="M 176.5,359.5 C 176.59,362.152 175.924,364.485 174.5,366.5C 174.41,363.848 175.076,361.515 176.5,359.5 Z"/></g>
<g><path style="opacity:1" fill="#768946" d="M 212.5,345.5 C 212.833,345.5 213.167,345.5 213.5,345.5C 211.382,354.69 209.549,364.023 208,373.5C 207.5,381.493 207.334,389.493 207.5,397.5C 206.833,397.5 206.5,397.833 206.5,398.5C 206.167,398.5 205.833,398.5 205.5,398.5C 205.303,387.108 205.97,375.775 207.5,364.5C 208.784,360.015 209.784,355.349 210.5,350.5C 211.931,349.22 212.598,347.553 212.5,345.5 Z"/></g>
<g><path style="opacity:1" fill="#748a45" d="M 586.5,355.5 C 588.265,358.123 588.932,361.123 588.5,364.5C 590.898,375.603 591.898,386.937 591.5,398.5C 591.167,398.5 590.833,398.5 590.5,398.5C 590.5,397.833 590.167,397.5 589.5,397.5C 590.085,383.265 589.085,369.265 586.5,355.5 Z"/></g>
<g><path style="opacity:1" fill="#6a9145" d="M 173.5,373.5 C 172.668,381.805 172.335,390.138 172.5,398.5C 172.167,398.5 171.833,398.5 171.5,398.5C 171.334,391.159 171.5,383.826 172,376.5C 172.232,375.263 172.732,374.263 173.5,373.5 Z"/></g>
<g><path style="opacity:1" fill="#4aa244" d="M 799.5,383.5 C 799.5,387.833 799.5,392.167 799.5,396.5C 787.829,396.667 776.162,396.5 764.5,396C 763.062,395.781 761.729,395.281 760.5,394.5C 761,394.167 761.5,393.833 762,393.5C 764.12,394.459 766.287,394.626 768.5,394C 764.554,392.936 760.554,392.103 756.5,391.5C 749.789,392.255 743.123,392.422 736.5,392C 735.409,389.936 735.242,387.769 736,385.5C 740.155,385.872 744.322,385.372 748.5,384C 748.768,381.524 749.102,379.024 749.5,376.5C 759.436,376.543 769.436,376.71 779.5,377C 780.435,379.381 780.768,381.881 780.5,384.5C 783.167,384.167 785.833,383.833 788.5,383.5C 788.338,381.473 788.505,379.473 789,377.5C 795.156,374.842 797.656,376.842 796.5,383.5C 797.5,383.5 798.5,383.5 799.5,383.5 Z"/></g>
<g><path style="opacity:1" fill="#9e6043" d="M 173.5,372.5 C 173.833,372.5 174.167,372.5 174.5,372.5C 173.797,381.149 173.464,389.815 173.5,398.5C 173.5,402.5 173.5,406.5 173.5,410.5C 172.517,406.702 172.183,402.702 172.5,398.5C 172.335,390.138 172.668,381.805 173.5,373.5C 173.5,373.167 173.5,372.833 173.5,372.5 Z"/></g>
<g><path style="opacity:1" fill="#933d2e" d="M 588.5,364.5 C 590.045,365.23 590.878,366.563 591,368.5C 592.165,378.467 592.665,388.467 592.5,398.5C 592.823,405.022 592.49,411.355 591.5,417.5C 591.5,411.167 591.5,404.833 591.5,398.5C 591.898,386.937 590.898,375.603 588.5,364.5 Z"/></g>
<g><path style="opacity:1" fill="#9c6642" d="M 622.5,372.5 C 623.29,373.609 623.79,374.942 624,376.5C 624.5,383.826 624.666,391.159 624.5,398.5C 624.5,402.5 624.5,406.5 624.5,410.5C 624.167,410.5 623.833,410.5 623.5,410.5C 623.5,406.5 623.5,402.5 623.5,398.5C 623.825,391.313 623.491,384.313 622.5,377.5C 622.5,375.833 622.5,374.167 622.5,372.5 Z"/></g>
<g><path style="opacity:1" fill="#b42b36" d="M 182.5,334.5 C 181.965,338.819 181.465,343.152 181,347.5C 178.551,353.919 176.884,360.586 176,367.5C 175.5,377.161 175.334,386.828 175.5,396.5C 184.833,396.5 194.167,396.5 203.5,396.5C 203.334,390.158 203.5,383.825 204,377.5C 205.086,373.093 206.252,368.759 207.5,364.5C 205.97,375.775 205.303,387.108 205.5,398.5C 205.5,404.5 205.5,410.5 205.5,416.5C 204.51,410.69 204.177,404.69 204.5,398.5C 194.5,398.5 184.5,398.5 174.5,398.5C 174.167,398.5 173.833,398.5 173.5,398.5C 173.464,389.815 173.797,381.149 174.5,372.5C 174.5,370.5 174.5,368.5 174.5,366.5C 175.924,364.485 176.59,362.152 176.5,359.5C 176.748,355.094 177.415,350.76 178.5,346.5C 180.074,344.898 180.741,342.898 180.5,340.5C 180.5,339.5 180.5,338.5 180.5,337.5C 181.167,336.5 181.833,335.5 182.5,334.5 Z"/></g>
<g><path style="opacity:1" fill="#76a926" d="M 206.5,398.5 C 206.5,397.833 206.833,397.5 207.5,397.5C 334.833,397.5 462.167,397.5 589.5,397.5C 590.167,397.5 590.5,397.833 590.5,398.5C 526.998,398.168 463.664,398.501 400.5,399.5C 399.167,398.167 397.833,398.167 396.5,399.5C 333.336,398.501 270.002,398.168 206.5,398.5 Z"/></g>
<g><path style="opacity:1" fill="#8a2769" d="M 174.5,398.5 C 184.5,398.5 194.5,398.5 204.5,398.5C 204.177,404.69 204.51,410.69 205.5,416.5C 205.5,417.167 205.5,417.833 205.5,418.5C 204.883,418.389 204.383,418.056 204,417.5C 203.501,411.509 203.334,405.509 203.5,399.5C 194.167,399.5 184.833,399.5 175.5,399.5C 175.5,405.167 175.5,410.833 175.5,416.5C 174.51,410.69 174.177,404.69 174.5,398.5 Z"/></g>
<g><path style="opacity:1" fill="#e6e02f" d="M 206.5,398.5 C 270.002,398.168 333.336,398.501 396.5,399.5C 396.5,400.167 396.167,400.5 395.5,400.5C 332.5,399.833 269.5,399.167 206.5,398.5 Z"/></g>
<g><path style="opacity:1" fill="#e9e132" d="M 590.5,398.5 C 590.5,399.167 590.167,399.5 589.5,399.5C 526.824,398.837 464.491,399.504 402.5,401.5C 401.5,401.167 400.833,400.5 400.5,399.5C 463.664,398.501 526.998,398.168 590.5,398.5 Z"/></g>
<g><path style="opacity:1" fill="#80277a" d="M 592.5,398.5 C 602.5,398.5 612.5,398.5 622.5,398.5C 622.078,407.829 621.745,417.163 621.5,426.5C 621.5,427.5 621.5,428.5 621.5,429.5C 619.735,432.123 619.068,435.123 619.5,438.5C 618.908,441.127 618.575,443.794 618.5,446.5C 618.167,447.833 617.833,449.167 617.5,450.5C 616.883,450.611 616.383,450.944 616,451.5C 615.505,453.473 615.338,455.473 615.5,457.5C 614.883,457.611 614.383,457.944 614,458.5C 613.637,461.544 613.137,464.544 612.5,467.5C 610.498,473.834 608.498,480.168 606.5,486.5C 602.031,496.104 597.031,505.437 591.5,514.5C 588.956,515.708 587.622,517.708 587.5,520.5C 587.5,521.167 587.5,521.833 587.5,522.5C 585.738,523.262 584.738,524.596 584.5,526.5C 584.5,526.833 584.5,527.167 584.5,527.5C 581.465,528.9 579.465,531.233 578.5,534.5C 576.4,536.596 573.9,538.263 571,539.5C 570.506,541.134 570.34,542.801 570.5,544.5C 564.477,549.523 559.143,555.19 554.5,561.5C 540.724,574.129 525.724,585.129 509.5,594.5C 503.857,596.655 498.523,599.322 493.5,602.5C 486.023,604.18 479.023,606.846 472.5,610.5C 469.095,611.831 465.762,613.164 462.5,614.5C 460.254,615.455 457.921,616.122 455.5,616.5C 449.546,617.757 443.546,618.757 437.5,619.5C 415.995,621.497 394.328,621.997 372.5,621C 361.95,618.514 351.284,616.681 340.5,615.5C 336.05,613.618 331.383,611.784 326.5,610C 323.522,609.304 320.522,608.804 317.5,608.5C 307.54,604.19 297.54,599.856 287.5,595.5C 275.055,587.367 263.055,578.7 251.5,569.5C 248.465,566.794 245.465,564.127 242.5,561.5C 239.167,557.5 235.5,553.833 231.5,550.5C 229.584,546.912 226.917,543.912 223.5,541.5C 222.91,540.234 222.41,538.901 222,537.5C 218.343,534.135 215.176,530.468 212.5,526.5C 212.5,525.833 212.5,525.167 212.5,524.5C 210.201,519.374 207.535,514.374 204.5,509.5C 203.735,508.388 202.735,507.721 201.5,507.5C 197.778,500.66 194.445,493.66 191.5,486.5C 190.035,480.773 188.369,475.106 186.5,469.5C 185.999,467.345 184.999,465.678 183.5,464.5C 182.469,462.039 181.802,459.373 181.5,456.5C 181.663,454.143 181.497,451.81 181,449.5C 180.617,448.944 180.117,448.611 179.5,448.5C 179.68,444.714 178.68,441.381 176.5,438.5C 176.5,437.167 176.5,435.833 176.5,434.5C 176.425,431.794 176.092,429.127 175.5,426.5C 175.5,423.167 175.5,419.833 175.5,416.5C 175.5,410.833 175.5,405.167 175.5,399.5C 184.833,399.5 194.167,399.5 203.5,399.5C 203.334,405.509 203.501,411.509 204,417.5C 204.383,418.056 204.883,418.389 205.5,418.5C 204.911,422.971 205.577,426.971 207.5,430.5C 207.336,433.187 207.503,435.854 208,438.5C 208.278,439.416 208.778,440.082 209.5,440.5C 209.5,440.833 209.5,441.167 209.5,441.5C 208.9,447.149 210.233,452.149 213.5,456.5C 213.01,460.951 214.344,464.617 217.5,467.5C 217.5,467.833 217.5,468.167 217.5,468.5C 219.373,474.585 221.54,480.585 224,486.5C 225.246,489.913 227.413,492.579 230.5,494.5C 237.346,506.015 245.346,516.682 254.5,526.5C 258.167,530.5 261.833,534.5 265.5,538.5C 266.167,538.833 266.833,539.167 267.5,539.5C 270.231,543.234 273.564,546.234 277.5,548.5C 287.912,557.366 299.246,564.699 311.5,570.5C 314.946,572.109 318.279,573.943 321.5,576C 325.249,576.918 328.916,578.085 332.5,579.5C 344.183,584.503 356.516,587.503 369.5,588.5C 369.5,589.167 369.833,589.5 370.5,589.5C 379.725,592.898 389.391,594.232 399.5,593.5C 404.833,593.333 410.167,593.167 415.5,593C 420.146,591.877 424.146,590.71 427.5,589.5C 427.5,589.167 427.5,588.833 427.5,588.5C 433.134,587.573 438.801,586.907 444.5,586.5C 451.549,585.865 458.549,584.865 465.5,583.5C 465.167,582.833 464.833,582.167 464.5,581.5C 467.908,580.381 470.908,578.715 473.5,576.5C 477.495,574.502 481.495,572.502 485.5,570.5C 492.761,565.864 500.428,561.698 508.5,558C 515.98,551.024 523.647,544.19 531.5,537.5C 532.552,537.649 533.552,537.483 534.5,537C 538.084,532.595 541.75,528.428 545.5,524.5C 547.092,520.91 549.425,517.91 552.5,515.5C 554.326,513.853 555.66,511.853 556.5,509.5C 557.136,507.205 558.469,505.539 560.5,504.5C 564.528,502.422 566.528,499.088 566.5,494.5C 569.819,490.54 572.653,486.207 575,481.5C 575.878,478.291 577.211,475.291 579,472.5C 579.494,470.866 579.66,469.199 579.5,467.5C 579.833,466.167 580.167,464.833 580.5,463.5C 583.092,461.964 584.092,459.631 583.5,456.5C 584.924,454.485 585.59,452.152 585.5,449.5C 585.7,446.37 586.366,443.37 587.5,440.5C 588.222,440.082 588.722,439.416 589,438.5C 589.497,435.854 589.664,433.187 589.5,430.5C 590.989,426.764 591.656,422.764 591.5,418.5C 591.5,418.167 591.5,417.833 591.5,417.5C 592.49,411.355 592.823,405.022 592.5,398.5 Z"/></g>
<g><path style="opacity:1" fill="#f9da13" d="M 624.5,398.5 C 624.833,398.5 625.167,398.5 625.5,398.5C 683.5,398.5 741.5,398.5 799.5,398.5C 799.5,419.833 799.5,441.167 799.5,462.5C 738.5,462.5 677.5,462.5 616.5,462.5C 616.5,460.833 616.5,459.167 616.5,457.5C 616.5,457.167 616.5,456.833 616.5,456.5C 619.024,453.761 620.024,450.428 619.5,446.5C 619.833,443.833 620.167,441.167 620.5,438.5C 620.5,437.833 620.5,437.167 620.5,436.5C 621.793,435.158 622.626,433.491 623,431.5C 623.666,424.507 624.166,417.507 624.5,410.5C 624.5,406.5 624.5,402.5 624.5,398.5 Z"/></g>
<g><path style="opacity:1" fill="#f9da11" d="M 178.5,456.5 C 179.451,457.919 179.784,459.585 179.5,461.5C 145.167,461.5 110.833,461.5 76.5,461.5C 76.3159,458.679 77.6493,457.012 80.5,456.5C 81.6517,453.894 81.8184,451.227 81,448.5C 79.9887,447.663 78.8221,447.33 77.5,447.5C 77.5,432.167 77.5,416.833 77.5,401.5C 108.146,401.385 138.813,401.052 169.5,400.5C 169.334,408.507 169.5,416.507 170,424.5C 171.011,425.337 172.178,425.67 173.5,425.5C 173.152,432.967 173.819,440.3 175.5,447.5C 175.364,449.865 175.03,452.198 174.5,454.5C 174.983,457.316 176.316,457.983 178.5,456.5 Z"/></g>
<g><path style="opacity:1" fill="#f9da12" d="M 205.5,398.5 C 205.833,398.5 206.167,398.5 206.5,398.5C 269.5,399.167 332.5,399.833 395.5,400.5C 385.866,411.468 375.866,422.135 365.5,432.5C 364.599,433.29 363.932,434.29 363.5,435.5C 354.14,444.194 345.14,453.194 336.5,462.5C 336.167,462.5 335.833,462.5 335.5,462.5C 296.337,461.501 257.004,461.168 217.5,461.5C 216.713,458.092 215.379,455.092 213.5,452.5C 213.833,449.833 214.167,447.167 214.5,444.5C 213.5,444.5 212.5,444.5 211.5,444.5C 211.59,442.304 211.923,440.137 212.5,438C 210.139,431.616 208.139,425.116 206.5,418.5C 206.167,418.5 205.833,418.5 205.5,418.5C 205.5,417.833 205.5,417.167 205.5,416.5C 205.5,410.5 205.5,404.5 205.5,398.5 Z"/></g>
<g><path style="opacity:1" fill="#f9da11" d="M 589.5,399.5 C 589.666,406.508 589.5,413.508 589,420.5C 587.447,422.694 585.281,423.86 582.5,424C 581.941,424.725 581.608,425.558 581.5,426.5C 583.799,428.62 585.466,430.787 586.5,433C 583.925,441.252 582.259,449.752 581.5,458.5C 580.522,458.811 579.855,459.478 579.5,460.5C 539.129,461.822 498.796,461.822 458.5,460.5C 455.833,458.167 453.167,455.833 450.5,453.5C 446.227,447.558 441.227,442.224 435.5,437.5C 427.534,427.866 418.867,418.866 409.5,410.5C 407.573,407.233 405.239,404.233 402.5,401.5C 464.491,399.504 526.824,398.837 589.5,399.5 Z"/></g>
<g><path style="opacity:1" fill="#f6d915" d="M -0.5,398.5 C 56.8333,398.5 114.167,398.5 171.5,398.5C 171.833,398.5 172.167,398.5 172.5,398.5C 172.183,402.702 172.517,406.702 173.5,410.5C 173.833,415.833 174.167,421.167 174.5,426.5C 174.565,429.428 175.232,432.095 176.5,434.5C 176.5,435.833 176.5,437.167 176.5,438.5C 176.5,439.833 176.5,441.167 176.5,442.5C 176.951,447.237 177.618,451.903 178.5,456.5C 176.316,457.983 174.983,457.316 174.5,454.5C 175.03,452.198 175.364,449.865 175.5,447.5C 173.819,440.3 173.152,432.967 173.5,425.5C 172.178,425.67 171.011,425.337 170,424.5C 169.5,416.507 169.334,408.507 169.5,400.5C 138.813,401.052 108.146,401.385 77.5,401.5C 77.5,416.833 77.5,432.167 77.5,447.5C 78.8221,447.33 79.9887,447.663 81,448.5C 81.8184,451.227 81.6517,453.894 80.5,456.5C 77.6493,457.012 76.3159,458.679 76.5,461.5C 50.8333,461.5 25.1667,461.5 -0.5,461.5C -0.5,440.5 -0.5,419.5 -0.5,398.5 Z"/></g>
<g><path style="opacity:1" fill="#36310a" d="M 400.5,399.5 C 400.833,400.5 401.5,401.167 402.5,401.5C 405.239,404.233 407.573,407.233 409.5,410.5C 406.036,407.538 402.703,404.371 399.5,401C 388.874,410.456 378.541,420.622 368.5,431.5C 367.583,432.127 366.583,432.461 365.5,432.5C 375.866,422.135 385.866,411.468 395.5,400.5C 396.167,400.5 396.5,400.167 396.5,399.5C 397.833,398.167 399.167,398.167 400.5,399.5 Z"/></g>
<g><path style="opacity:1" fill="#242423" d="M 409.5,410.5 C 414.069,416.576 419.236,422.242 425,427.5C 425.494,429.134 425.66,430.801 425.5,432.5C 426.93,432.421 428.264,432.754 429.5,433.5C 431.122,435.641 433.122,437.308 435.5,438.5C 440.167,443.833 445.167,448.833 450.5,453.5C 453.167,455.833 455.833,458.167 458.5,460.5C 458.833,461.5 459.5,462.167 460.5,462.5C 467.067,469.311 473.4,476.311 479.5,483.5C 483.105,488.774 487.438,493.441 492.5,497.5C 501.956,507.446 511.623,517.113 521.5,526.5C 521.5,526.833 521.5,527.167 521.5,527.5C 523.766,531.436 526.766,534.769 530.5,537.5C 530.833,537.5 531.167,537.5 531.5,537.5C 523.647,544.19 515.98,551.024 508.5,558C 500.428,561.698 492.761,565.864 485.5,570.5C 456.858,539.858 427.858,509.524 398.5,479.5C 386.78,490.219 375.78,501.552 365.5,513.5C 350.774,528.223 336.441,543.223 322.5,558.5C 318.788,561.211 315.788,564.544 313.5,568.5C 312.5,568.833 311.833,569.5 311.5,570.5C 299.246,564.699 287.912,557.366 277.5,548.5C 274.769,544.766 271.436,541.766 267.5,539.5C 269.264,535.094 271.931,531.261 275.5,528C 275.272,527.601 274.938,527.435 274.5,527.5C 274.5,527.167 274.5,526.833 274.5,526.5C 275.239,526.631 275.906,526.464 276.5,526C 284.338,516.995 292.672,508.495 301.5,500.5C 303.017,500.489 304.184,499.823 305,498.5C 310.732,492.275 316.232,485.942 321.5,479.5C 325.795,473.537 330.795,468.204 336.5,463.5C 341.74,459.767 346.574,455.434 351,450.5C 355.401,445.607 359.568,440.607 363.5,435.5C 363.932,434.29 364.599,433.29 365.5,432.5C 366.583,432.461 367.583,432.127 368.5,431.5C 378.541,420.622 388.874,410.456 399.5,401C 402.703,404.371 406.036,407.538 409.5,410.5 Z"/></g>
<g><path style="opacity:1" fill="#813350" d="M 622.5,398.5 C 622.833,398.5 623.167,398.5 623.5,398.5C 623.5,402.5 623.5,406.5 623.5,410.5C 623.473,416.051 622.806,421.384 621.5,426.5C 621.745,417.163 622.078,407.829 622.5,398.5 Z"/></g>
<g><path style="opacity:1" fill="#813546" d="M 173.5,398.5 C 173.833,398.5 174.167,398.5 174.5,398.5C 174.177,404.69 174.51,410.69 175.5,416.5C 175.5,419.833 175.5,423.167 175.5,426.5C 175.167,426.5 174.833,426.5 174.5,426.5C 174.167,421.167 173.833,415.833 173.5,410.5C 173.5,406.5 173.5,402.5 173.5,398.5 Z"/></g>
<g><path style="opacity:1" fill="#f8d037" d="M 590.5,398.5 C 590.833,398.5 591.167,398.5 591.5,398.5C 591.5,404.833 591.5,411.167 591.5,417.5C 591.5,417.833 591.5,418.167 591.5,418.5C 590.205,422.267 589.539,426.267 589.5,430.5C 588.419,433.627 587.753,436.96 587.5,440.5C 586.366,443.37 585.7,446.37 585.5,449.5C 584.076,451.515 583.41,453.848 583.5,456.5C 582.833,457.167 582.167,457.833 581.5,458.5C 582.259,449.752 583.925,441.252 586.5,433C 585.466,430.787 583.799,428.62 581.5,426.5C 581.608,425.558 581.941,424.725 582.5,424C 585.281,423.86 587.447,422.694 589,420.5C 589.5,413.508 589.666,406.508 589.5,399.5C 590.167,399.5 590.5,399.167 590.5,398.5 Z"/></g>
<g><path style="opacity:1" fill="#864235" d="M 591.5,418.5 C 591.656,422.764 590.989,426.764 589.5,430.5C 589.539,426.267 590.205,422.267 591.5,418.5 Z"/></g>
<g><path style="opacity:1" fill="#81324d" d="M 205.5,418.5 C 205.833,418.5 206.167,418.5 206.5,418.5C 206.646,422.519 206.979,426.519 207.5,430.5C 205.577,426.971 204.911,422.971 205.5,418.5 Z"/></g>
<g><path style="opacity:1" fill="#f0be49" d="M 623.5,410.5 C 623.833,410.5 624.167,410.5 624.5,410.5C 624.166,417.507 623.666,424.507 623,431.5C 622.626,433.491 621.793,435.158 620.5,436.5C 620.674,434.139 621.007,431.806 621.5,429.5C 621.5,428.5 621.5,427.5 621.5,426.5C 622.806,421.384 623.473,416.051 623.5,410.5 Z"/></g>
<g><path style="opacity:1" fill="#2c2912" d="M 409.5,410.5 C 418.867,418.866 427.534,427.866 435.5,437.5C 435.5,437.833 435.5,438.167 435.5,438.5C 433.122,437.308 431.122,435.641 429.5,433.5C 428.264,432.754 426.93,432.421 425.5,432.5C 425.66,430.801 425.494,429.134 425,427.5C 419.236,422.242 414.069,416.576 409.5,410.5 Z"/></g>
<g><path style="opacity:1" fill="#803449" d="M 621.5,429.5 C 621.007,431.806 620.674,434.139 620.5,436.5C 620.5,437.167 620.5,437.833 620.5,438.5C 620.167,438.5 619.833,438.5 619.5,438.5C 619.068,435.123 619.735,432.123 621.5,429.5 Z"/></g>
<g><path style="opacity:1" fill="#a5623a" d="M 174.5,426.5 C 174.833,426.5 175.167,426.5 175.5,426.5C 176.092,429.127 176.425,431.794 176.5,434.5C 175.232,432.095 174.565,429.428 174.5,426.5 Z"/></g>
<g><path style="opacity:1" fill="#833947" d="M 207.5,430.5 C 208.581,433.627 209.247,436.96 209.5,440.5C 208.778,440.082 208.278,439.416 208,438.5C 207.503,435.854 207.336,433.187 207.5,430.5 Z"/></g>
<g><path style="opacity:1" fill="#833a49" d="M 589.5,430.5 C 589.664,433.187 589.497,435.854 589,438.5C 588.722,439.416 588.222,440.082 587.5,440.5C 587.753,436.96 588.419,433.627 589.5,430.5 Z"/></g>
<g><path style="opacity:1" fill="#f6cd34" d="M 206.5,418.5 C 208.139,425.116 210.139,431.616 212.5,438C 211.923,440.137 211.59,442.304 211.5,444.5C 212.5,444.5 213.5,444.5 214.5,444.5C 214.167,447.167 213.833,449.833 213.5,452.5C 211.765,448.959 210.431,445.293 209.5,441.5C 209.5,441.167 209.5,440.833 209.5,440.5C 209.247,436.96 208.581,433.627 207.5,430.5C 206.979,426.519 206.646,422.519 206.5,418.5 Z"/></g>
<g><path style="opacity:1" fill="#3d3506" d="M 435.5,437.5 C 441.227,442.224 446.227,447.558 450.5,453.5C 445.167,448.833 440.167,443.833 435.5,438.5C 435.5,438.167 435.5,437.833 435.5,437.5 Z"/></g>
<g><path style="opacity:1" fill="#b87949" d="M 619.5,438.5 C 619.833,438.5 620.167,438.5 620.5,438.5C 620.167,441.167 619.833,443.833 619.5,446.5C 619.167,446.5 618.833,446.5 618.5,446.5C 618.575,443.794 618.908,441.127 619.5,438.5 Z"/></g>
<g><path style="opacity:1" fill="#a56047" d="M 176.5,438.5 C 178.68,441.381 179.68,444.714 179.5,448.5C 179.5,449.833 179.5,451.167 179.5,452.5C 178.982,449.021 177.982,445.688 176.5,442.5C 176.5,441.167 176.5,439.833 176.5,438.5 Z"/></g>
<g><path style="opacity:1" fill="#80354b" d="M 209.5,441.5 C 210.431,445.293 211.765,448.959 213.5,452.5C 213.5,453.833 213.5,455.167 213.5,456.5C 210.233,452.149 208.9,447.149 209.5,441.5 Z"/></g>
<g><path style="opacity:1" fill="#342e0b" d="M 363.5,435.5 C 359.568,440.607 355.401,445.607 351,450.5C 346.574,455.434 341.74,459.767 336.5,463.5C 336.5,463.167 336.5,462.833 336.5,462.5C 345.14,453.194 354.14,444.194 363.5,435.5 Z"/></g>
<g><path style="opacity:1" fill="#81314e" d="M 179.5,448.5 C 180.117,448.611 180.617,448.944 181,449.5C 181.497,451.81 181.663,454.143 181.5,456.5C 181.167,456.5 180.833,456.5 180.5,456.5C 180.768,454.901 180.434,453.568 179.5,452.5C 179.5,451.167 179.5,449.833 179.5,448.5 Z"/></g>
<g><path style="opacity:1" fill="#f2c143" d="M 618.5,446.5 C 618.833,446.5 619.167,446.5 619.5,446.5C 620.024,450.428 619.024,453.761 616.5,456.5C 616.517,454.435 616.85,452.435 617.5,450.5C 617.833,449.167 618.167,447.833 618.5,446.5 Z"/></g>
<g><path style="opacity:1" fill="#813745" d="M 617.5,450.5 C 616.85,452.435 616.517,454.435 616.5,456.5C 616.5,456.833 616.5,457.167 616.5,457.5C 616.167,457.5 615.833,457.5 615.5,457.5C 615.338,455.473 615.505,453.473 616,451.5C 616.383,450.944 616.883,450.611 617.5,450.5 Z"/></g>
<g><path style="opacity:1" fill="#823a3e" d="M 585.5,449.5 C 585.59,452.152 584.924,454.485 583.5,456.5C 583.41,453.848 584.076,451.515 585.5,449.5 Z"/></g>
<g><path style="opacity:1" fill="#fdcd22" d="M 176.5,442.5 C 177.982,445.688 178.982,449.021 179.5,452.5C 180.434,453.568 180.768,454.901 180.5,456.5C 180.517,458.565 180.85,460.565 181.5,462.5C 120.833,462.5 60.1667,462.5 -0.5,462.5C -0.5,462.167 -0.5,461.833 -0.5,461.5C 25.1667,461.5 50.8333,461.5 76.5,461.5C 110.833,461.5 145.167,461.5 179.5,461.5C 179.784,459.585 179.451,457.919 178.5,456.5C 177.618,451.903 176.951,447.237 176.5,442.5 Z"/></g>
<g><path style="opacity:1" fill="#832e58" d="M 213.5,456.5 C 214.5,458.5 215.5,460.5 216.5,462.5C 216.629,464.216 216.962,465.883 217.5,467.5C 214.344,464.617 213.01,460.951 213.5,456.5 Z"/></g>
<g><path style="opacity:1" fill="#fdcc26" d="M 213.5,452.5 C 215.379,455.092 216.713,458.092 217.5,461.5C 257.004,461.168 296.337,461.501 335.5,462.5C 295.833,462.5 256.167,462.5 216.5,462.5C 215.5,460.5 214.5,458.5 213.5,456.5C 213.5,455.167 213.5,453.833 213.5,452.5 Z"/></g>
<g><path style="opacity:1" fill="#fccc21" d="M 581.5,458.5 C 581.567,459.959 581.234,461.292 580.5,462.5C 540.5,462.5 500.5,462.5 460.5,462.5C 459.5,462.167 458.833,461.5 458.5,460.5C 498.796,461.822 539.129,461.822 579.5,460.5C 579.855,459.478 580.522,458.811 581.5,458.5 Z"/></g>
<g><path style="opacity:1" fill="#8c4046" d="M 583.5,456.5 C 584.092,459.631 583.092,461.964 580.5,463.5C 580.5,463.167 580.5,462.833 580.5,462.5C 581.234,461.292 581.567,459.959 581.5,458.5C 582.167,457.833 582.833,457.167 583.5,456.5 Z"/></g>
<g><path style="opacity:1" fill="#903a55" d="M 615.5,457.5 C 615.5,458.167 615.5,458.833 615.5,459.5C 614.686,461.631 614.186,463.964 614,466.5C 613.617,467.056 613.117,467.389 612.5,467.5C 613.137,464.544 613.637,461.544 614,458.5C 614.383,457.944 614.883,457.611 615.5,457.5 Z"/></g>
<g><path style="opacity:1" fill="#d8834f" d="M 180.5,456.5 C 180.833,456.5 181.167,456.5 181.5,456.5C 181.802,459.373 182.469,462.039 183.5,464.5C 184.186,468.975 185.186,473.309 186.5,477.5C 183.97,472.938 182.303,467.938 181.5,462.5C 180.85,460.565 180.517,458.565 180.5,456.5 Z"/></g>
<g><path style="opacity:1" fill="#e49a1f" d="M 615.5,457.5 C 615.833,457.5 616.167,457.5 616.5,457.5C 616.5,459.167 616.5,460.833 616.5,462.5C 677.5,462.5 738.5,462.5 799.5,462.5C 799.5,462.833 799.5,463.167 799.5,463.5C 738.167,463.5 676.833,463.5 615.5,463.5C 615.5,462.167 615.5,460.833 615.5,459.5C 615.5,458.833 615.5,458.167 615.5,457.5 Z"/></g>
<g><path style="opacity:1" fill="#ec902e" d="M -0.5,462.5 C 60.1667,462.5 120.833,462.5 181.5,462.5C 182.303,467.938 183.97,472.938 186.5,477.5C 189.514,487.537 193.514,497.203 198.5,506.5C 199.466,508.396 199.799,510.396 199.5,512.5C 200.833,512.5 202.167,512.5 203.5,512.5C 203.59,515.346 204.756,517.679 207,519.5C 207.72,521.112 207.554,522.612 206.5,524C 207.167,524.333 207.833,524.667 208.5,525C 138.834,525.5 69.1675,525.667 -0.5,525.5C -0.5,504.5 -0.5,483.5 -0.5,462.5 Z"/></g>
<g><path style="opacity:1" fill="#ec902e" d="M 460.5,462.5 C 500.5,462.5 540.5,462.5 580.5,462.5C 580.5,462.833 580.5,463.167 580.5,463.5C 577.689,465.768 575.855,468.768 575,472.5C 574.667,472.167 574.333,471.833 574,471.5C 573.661,474.88 573.161,478.213 572.5,481.5C 570.212,485.74 568.212,490.073 566.5,494.5C 563.579,497.242 561.579,500.575 560.5,504.5C 558.469,505.539 557.136,507.205 556.5,509.5C 554.178,510.802 552.845,512.802 552.5,515.5C 549.425,517.91 547.092,520.91 545.5,524.5C 543.973,524.427 542.973,525.094 542.5,526.5C 535.5,526.5 528.5,526.5 521.5,526.5C 511.623,517.113 501.956,507.446 492.5,497.5C 488.895,492.226 484.562,487.559 479.5,483.5C 473.4,476.311 467.067,469.311 460.5,462.5 Z"/></g>
<g><path style="opacity:1" fill="#ec902f" d="M 615.5,463.5 C 676.833,463.5 738.167,463.5 799.5,463.5C 799.5,484.167 799.5,504.833 799.5,525.5C 728.499,525.667 657.499,525.5 586.5,525C 587.252,524.329 587.586,523.496 587.5,522.5C 589,520.816 590.667,519.149 592.5,517.5C 594.083,515.01 595.083,512.343 595.5,509.5C 598.864,511.213 601.864,510.713 604.5,508C 603.207,507.51 601.873,507.343 600.5,507.5C 601.051,504.193 601.384,500.86 601.5,497.5C 603.96,497.301 606.293,496.635 608.5,495.5C 605.401,493.075 604.734,490.075 606.5,486.5C 608.148,485.223 609.982,484.223 612,483.5C 612.576,481.623 612.409,479.789 611.5,478C 613.264,473.323 614.598,468.49 615.5,463.5 Z"/></g>
<g><path style="opacity:1" fill="#ec8f2f" d="M 216.5,462.5 C 256.167,462.5 295.833,462.5 335.5,462.5C 335.833,462.5 336.167,462.5 336.5,462.5C 336.5,462.833 336.5,463.167 336.5,463.5C 330.795,468.204 325.795,473.537 321.5,479.5C 314.131,485.868 307.464,492.868 301.5,500.5C 292.672,508.495 284.338,516.995 276.5,526C 275.906,526.464 275.239,526.631 274.5,526.5C 267.833,526.5 261.167,526.5 254.5,526.5C 245.346,516.682 237.346,506.015 230.5,494.5C 226.542,485.614 222.209,476.948 217.5,468.5C 217.5,468.167 217.5,467.833 217.5,467.5C 216.962,465.883 216.629,464.216 216.5,462.5 Z"/></g>
<g><path style="opacity:1" fill="#892f5d" d="M 183.5,464.5 C 184.999,465.678 185.999,467.345 186.5,469.5C 188.369,475.106 190.035,480.773 191.5,486.5C 190.087,483.339 188.42,480.339 186.5,477.5C 185.186,473.309 184.186,468.975 183.5,464.5 Z"/></g>
<g><path style="opacity:1" fill="#de824b" d="M 580.5,463.5 C 580.167,464.833 579.833,466.167 579.5,467.5C 577.544,472.377 575.211,477.044 572.5,481.5C 573.161,478.213 573.661,474.88 574,471.5C 574.333,471.833 574.667,472.167 575,472.5C 575.855,468.768 577.689,465.768 580.5,463.5 Z"/></g>
<g><path style="opacity:1" fill="#e38740" d="M 615.5,459.5 C 615.5,460.833 615.5,462.167 615.5,463.5C 614.598,468.49 613.264,473.323 611.5,478C 612.409,479.789 612.576,481.623 612,483.5C 609.982,484.223 608.148,485.223 606.5,486.5C 608.498,480.168 610.498,473.834 612.5,467.5C 613.117,467.389 613.617,467.056 614,466.5C 614.186,463.964 614.686,461.631 615.5,459.5 Z"/></g>
<g><path style="opacity:1" fill="#8c345c" d="M 579.5,467.5 C 579.66,469.199 579.494,470.866 579,472.5C 577.211,475.291 575.878,478.291 575,481.5C 572.653,486.207 569.819,490.54 566.5,494.5C 568.212,490.073 570.212,485.74 572.5,481.5C 575.211,477.044 577.544,472.377 579.5,467.5 Z"/></g>
<g><path style="opacity:1" fill="#885a36" d="M 485.5,570.5 C 481.495,572.502 477.495,574.502 473.5,576.5C 463.982,580.556 454.315,583.889 444.5,586.5C 438.801,586.907 433.134,587.573 427.5,588.5C 426.833,588.167 426.167,587.833 425.5,587.5C 417.249,577.58 408.249,568.247 398.5,559.5C 389.812,567.521 381.479,575.854 373.5,584.5C 371.806,585.527 370.473,586.861 369.5,588.5C 356.516,587.503 344.183,584.503 332.5,579.5C 326.274,575.711 319.941,572.044 313.5,568.5C 315.788,564.544 318.788,561.211 322.5,558.5C 327.908,554.6 332.908,550.1 337.5,545C 343.585,537.859 351.252,529.859 360.5,521C 361.793,520.51 363.127,520.343 364.5,520.5C 364.448,518.097 364.781,515.764 365.5,513.5C 375.78,501.552 386.78,490.219 398.5,479.5C 427.858,509.524 456.858,539.858 485.5,570.5 Z"/></g>
<g><path style="opacity:1" fill="#482e12" d="M 479.5,483.5 C 484.562,487.559 488.895,492.226 492.5,497.5C 487.438,493.441 483.105,488.774 479.5,483.5 Z"/></g>
<g><path style="opacity:1" fill="#8c3460" d="M 217.5,468.5 C 222.209,476.948 226.542,485.614 230.5,494.5C 227.413,492.579 225.246,489.913 224,486.5C 221.54,480.585 219.373,474.585 217.5,468.5 Z"/></g>
<g><path style="opacity:1" fill="#412b11" d="M 321.5,479.5 C 316.232,485.942 310.732,492.275 305,498.5C 304.184,499.823 303.017,500.489 301.5,500.5C 307.464,492.868 314.131,485.868 321.5,479.5 Z"/></g>
<g><path style="opacity:1" fill="#93365f" d="M 566.5,494.5 C 566.528,499.088 564.528,502.422 560.5,504.5C 561.579,500.575 563.579,497.242 566.5,494.5 Z"/></g>
<g><path style="opacity:1" fill="#e88a3d" d="M 606.5,486.5 C 604.734,490.075 605.401,493.075 608.5,495.5C 606.293,496.635 603.96,497.301 601.5,497.5C 601.384,500.86 601.051,504.193 600.5,507.5C 601.873,507.343 603.207,507.51 604.5,508C 601.864,510.713 598.864,511.213 595.5,509.5C 595.083,512.343 594.083,515.01 592.5,517.5C 590.667,519.149 589,520.816 587.5,522.5C 587.5,521.833 587.5,521.167 587.5,520.5C 589.218,518.777 590.551,516.777 591.5,514.5C 597.031,505.437 602.031,496.104 606.5,486.5 Z"/></g>
<g><path style="opacity:1" fill="#892f5e" d="M 201.5,507.5 C 202.735,507.721 203.735,508.388 204.5,509.5C 207.535,514.374 210.201,519.374 212.5,524.5C 209.492,520.494 206.492,516.494 203.5,512.5C 203.107,510.716 202.441,509.05 201.5,507.5 Z"/></g>
<g><path style="opacity:1" fill="#e1834a" d="M 186.5,477.5 C 188.42,480.339 190.087,483.339 191.5,486.5C 194.445,493.66 197.778,500.66 201.5,507.5C 202.441,509.05 203.107,510.716 203.5,512.5C 202.167,512.5 200.833,512.5 199.5,512.5C 199.799,510.396 199.466,508.396 198.5,506.5C 193.514,497.203 189.514,487.537 186.5,477.5 Z"/></g>
<g><path style="opacity:1" fill="#b05254" d="M 556.5,509.5 C 555.66,511.853 554.326,513.853 552.5,515.5C 552.845,512.802 554.178,510.802 556.5,509.5 Z"/></g>
<g><path style="opacity:1" fill="#913558" d="M 591.5,514.5 C 590.551,516.777 589.218,518.777 587.5,520.5C 587.622,517.708 588.956,515.708 591.5,514.5 Z"/></g>
<g><path style="opacity:1" fill="#7d593c" d="M 365.5,513.5 C 364.781,515.764 364.448,518.097 364.5,520.5C 363.127,520.343 361.793,520.51 360.5,521C 351.252,529.859 343.585,537.859 337.5,545C 332.908,550.1 327.908,554.6 322.5,558.5C 336.441,543.223 350.774,528.223 365.5,513.5 Z"/></g>
<g><path style="opacity:1" fill="#f3883e" d="M 203.5,512.5 C 206.492,516.494 209.492,520.494 212.5,524.5C 212.5,525.167 212.5,525.833 212.5,526.5C 212.167,526.5 211.833,526.5 211.5,526.5C 140.833,526.5 70.1667,526.5 -0.5,526.5C -0.5,526.167 -0.5,525.833 -0.5,525.5C 69.1675,525.667 138.834,525.5 208.5,525C 207.833,524.667 207.167,524.333 206.5,524C 207.554,522.612 207.72,521.112 207,519.5C 204.756,517.679 203.59,515.346 203.5,512.5 Z"/></g>
<g><path style="opacity:1" fill="#9b2d5d" d="M 545.5,524.5 C 541.75,528.428 538.084,532.595 534.5,537C 533.552,537.483 532.552,537.649 531.5,537.5C 531.167,537.5 530.833,537.5 530.5,537.5C 530.5,537.167 530.5,536.833 530.5,536.5C 531.552,536.649 532.552,536.483 533.5,536C 536.641,532.813 539.641,529.646 542.5,526.5C 542.973,525.094 543.973,524.427 545.5,524.5 Z"/></g>
<g><path style="opacity:1" fill="#f3873e" d="M 587.5,522.5 C 587.586,523.496 587.252,524.329 586.5,525C 657.499,525.5 728.499,525.667 799.5,525.5C 799.5,525.833 799.5,526.167 799.5,526.5C 727.833,526.5 656.167,526.5 584.5,526.5C 584.738,524.596 585.738,523.262 587.5,522.5 Z"/></g>
<g><path style="opacity:1" fill="#d2332e" d="M -0.5,526.5 C 70.1667,526.5 140.833,526.5 211.5,526.5C 154.843,528.496 97.8431,529.163 40.5,528.5C 26.8333,528.5 13.1667,528.5 -0.5,528.5C -0.5,527.833 -0.5,527.167 -0.5,526.5 Z"/></g>
<g><path style="opacity:1" fill="#d2352b" d="M 584.5,526.5 C 656.167,526.5 727.833,526.5 799.5,526.5C 799.5,527.167 799.5,527.833 799.5,528.5C 771.833,528.5 744.167,528.5 716.5,528.5C 672.33,528.832 628.33,528.499 584.5,527.5C 584.5,527.167 584.5,526.833 584.5,526.5 Z"/></g>
<g><path style="opacity:1" fill="#d21c35" d="M 211.5,526.5 C 211.833,526.5 212.167,526.5 212.5,526.5C 215.176,530.468 218.343,534.135 222,537.5C 222.41,538.901 222.91,540.234 223.5,541.5C 225.482,545.146 228.149,548.146 231.5,550.5C 235.5,553.833 239.167,557.5 242.5,561.5C 238.138,565.527 234.138,569.86 230.5,574.5C 229.761,574.369 229.094,574.536 228.5,575C 224.348,579.551 220.348,584.051 216.5,588.5C 215.094,588.973 214.427,589.973 214.5,591.5C 210.259,595.4 205.926,599.4 201.5,603.5C 199.395,605.592 197.728,607.925 196.5,610.5C 189.825,616.176 183.825,622.509 178.5,629.5C 176.456,630.031 174.789,631.198 173.5,633C 172.207,633.49 170.873,633.657 169.5,633.5C 169.428,636.553 168.428,639.219 166.5,641.5C 160.906,646.766 155.573,652.432 150.5,658.5C 145.397,661.768 141.063,665.935 137.5,671C 136.207,671.49 134.873,671.657 133.5,671.5C 133.428,674.553 132.428,677.219 130.5,679.5C 129.833,679.5 129.5,679.833 129.5,680.5C 128.504,680.414 127.671,680.748 127,681.5C 124.59,684.397 122.423,687.397 120.5,690.5C 119.167,690.5 118.5,691.167 118.5,692.5C 117.761,692.369 117.094,692.536 116.5,693C 111.017,698.885 105.683,704.719 100.5,710.5C 98.4131,711.585 97.0798,713.251 96.5,715.5C 95.5,715.833 94.8333,716.5 94.5,717.5C 91.6057,718.882 89.1057,720.882 87,723.5C 84.59,726.397 82.4233,729.397 80.5,732.5C 75.8333,735.833 71.8333,739.833 68.5,744.5C 65.5,745.5 63.5,747.5 62.5,750.5C 62.1667,751.5 61.5,752.167 60.5,752.5C 58.629,752.859 57.129,753.859 56,755.5C 53.2589,758.729 50.7589,762.062 48.5,765.5C 44.1102,769.553 40.1102,773.887 36.5,778.5C 32.4564,781.543 29.1231,785.209 26.5,789.5C 22.2634,791.947 18.93,795.281 16.5,799.5C 10.8333,799.5 5.16667,799.5 -0.5,799.5C -0.5,794.5 -0.5,789.5 -0.5,784.5C 3.83333,784.5 8.16667,784.5 12.5,784.5C 12.5,779.167 12.5,773.833 12.5,768.5C 17.5111,768.666 22.5111,768.499 27.5,768C 29.9926,761.32 27.6593,758.82 20.5,760.5C 20.5,757.833 20.5,755.167 20.5,752.5C 27.6593,754.18 29.9926,751.68 27.5,745C 25.1902,744.503 22.8568,744.337 20.5,744.5C 20.5,741.833 20.5,739.167 20.5,736.5C 27.6593,738.18 29.9926,735.68 27.5,729C 25.1902,728.503 22.8568,728.337 20.5,728.5C 20.5,725.833 20.5,723.167 20.5,720.5C 27.6593,722.18 29.9926,719.68 27.5,713C 25.1902,712.503 22.8568,712.337 20.5,712.5C 20.5,707.167 20.5,701.833 20.5,696.5C 23.1667,696.5 25.8333,696.5 28.5,696.5C 28.3341,701.511 28.5007,706.511 29,711.5C 35.6797,713.993 38.1797,711.659 36.5,704.5C 43.6593,706.18 45.9926,703.68 43.5,697C 41.1902,696.503 38.8568,696.337 36.5,696.5C 36.7683,693.881 36.435,691.381 35.5,689C 30.5111,688.501 25.5111,688.334 20.5,688.5C 20.6659,683.489 20.4993,678.489 20,673.5C 17.6194,672.565 15.1194,672.232 12.5,672.5C 12.5,669.833 12.5,667.167 12.5,664.5C 15.1667,664.5 17.8333,664.5 20.5,664.5C 18.8827,671.887 21.5494,674.22 28.5,671.5C 28.6213,674.002 28.7879,676.668 29,679.5C 36.0613,681.937 38.228,679.603 35.5,672.5C 38.0018,672.379 40.6685,672.212 43.5,672C 44.6349,667.252 44.8015,662.419 44,657.5C 41.6194,656.565 39.1194,656.232 36.5,656.5C 36.6659,651.489 36.4993,646.489 36,641.5C 33.6194,640.565 31.1194,640.232 28.5,640.5C 28.5,636.5 28.5,632.5 28.5,628.5C 29.8333,628.5 31.1667,628.5 32.5,628.5C 32.5,629.833 32.5,631.167 32.5,632.5C 33.8221,632.67 34.9887,632.337 36,631.5C 36.7581,629.231 36.5914,627.064 35.5,625C 26.5062,624.5 17.5062,624.334 8.5,624.5C 8.5,625.833 8.5,627.167 8.5,628.5C 7.16667,628.5 5.83333,628.5 4.5,628.5C 4.5,624.5 4.5,620.5 4.5,616.5C 5.83333,616.5 7.16667,616.5 8.5,616.5C 8.5,615.167 8.5,613.833 8.5,612.5C 9.83333,612.5 11.1667,612.5 12.5,612.5C 12.5,611.167 12.5,609.833 12.5,608.5C 15.1667,608.5 17.8333,608.5 20.5,608.5C 20.5,605.833 20.5,603.167 20.5,600.5C 23.1667,600.5 25.8333,600.5 28.5,600.5C 28.5,597.833 28.5,595.167 28.5,592.5C 20.5,592.5 12.5,592.5 4.5,592.5C 4.5,589.833 4.5,587.167 4.5,584.5C 9.51108,584.666 14.5111,584.499 19.5,584C 20.8333,581.667 20.8333,579.333 19.5,577C 14.5111,576.501 9.51108,576.334 4.5,576.5C 4.5,573.833 4.5,571.167 4.5,568.5C 12.5,568.5 20.5,568.5 28.5,568.5C 28.5,571.167 28.5,573.833 28.5,576.5C 33.8333,576.5 39.1667,576.5 44.5,576.5C 46.1667,569.5 43.5,566.833 36.5,568.5C 36.5,563.167 36.5,557.833 36.5,552.5C 44.1739,552.666 51.8406,552.5 59.5,552C 60.8333,549.667 60.8333,547.333 59.5,545C 54.5111,544.501 49.5111,544.334 44.5,544.5C 44.5,541.833 44.5,539.167 44.5,536.5C 54.8387,536.666 65.172,536.5 75.5,536C 76.3366,534.989 76.67,533.822 76.5,532.5C 75.1667,532.5 73.8333,532.5 72.5,532.5C 72.5,531.5 72.5,530.5 72.5,529.5C 61.6536,529.828 50.9869,529.494 40.5,528.5C 97.8431,529.163 154.843,528.496 211.5,526.5 Z"/></g>
<g><path style="opacity:1" fill="#4c1b21" d="M 521.5,527.5 C 524.833,530.167 527.833,533.167 530.5,536.5C 530.5,536.833 530.5,537.167 530.5,537.5C 526.766,534.769 523.766,531.436 521.5,527.5 Z"/></g>
<g><path style="opacity:1" fill="#cc2535" d="M 521.5,527.5 C 521.5,527.167 521.5,526.833 521.5,526.5C 528.5,526.5 535.5,526.5 542.5,526.5C 539.641,529.646 536.641,532.813 533.5,536C 532.552,536.483 531.552,536.649 530.5,536.5C 527.833,533.167 524.833,530.167 521.5,527.5 Z"/></g>
<g><path style="opacity:1" fill="#d11e38" d="M -0.5,528.5 C 13.1667,528.5 26.8333,528.5 40.5,528.5C 50.9869,529.494 61.6536,529.828 72.5,529.5C 72.5,530.5 72.5,531.5 72.5,532.5C 73.8333,532.5 75.1667,532.5 76.5,532.5C 76.67,533.822 76.3366,534.989 75.5,536C 65.172,536.5 54.8387,536.666 44.5,536.5C 44.5,539.167 44.5,541.833 44.5,544.5C 49.5111,544.334 54.5111,544.501 59.5,545C 60.8333,547.333 60.8333,549.667 59.5,552C 51.8406,552.5 44.1739,552.666 36.5,552.5C 36.5,557.833 36.5,563.167 36.5,568.5C 43.5,566.833 46.1667,569.5 44.5,576.5C 39.1667,576.5 33.8333,576.5 28.5,576.5C 28.5,573.833 28.5,571.167 28.5,568.5C 20.5,568.5 12.5,568.5 4.5,568.5C 4.5,571.167 4.5,573.833 4.5,576.5C 9.51108,576.334 14.5111,576.501 19.5,577C 20.8333,579.333 20.8333,581.667 19.5,584C 14.5111,584.499 9.51108,584.666 4.5,584.5C 4.5,587.167 4.5,589.833 4.5,592.5C 12.5,592.5 20.5,592.5 28.5,592.5C 28.5,595.167 28.5,597.833 28.5,600.5C 25.8333,600.5 23.1667,600.5 20.5,600.5C 20.5,603.167 20.5,605.833 20.5,608.5C 17.8333,608.5 15.1667,608.5 12.5,608.5C 12.5,609.833 12.5,611.167 12.5,612.5C 11.1667,612.5 9.83333,612.5 8.5,612.5C 8.5,613.833 8.5,615.167 8.5,616.5C 7.16667,616.5 5.83333,616.5 4.5,616.5C 4.5,620.5 4.5,624.5 4.5,628.5C 5.83333,628.5 7.16667,628.5 8.5,628.5C 8.5,627.167 8.5,625.833 8.5,624.5C 17.5062,624.334 26.5062,624.5 35.5,625C 36.5914,627.064 36.7581,629.231 36,631.5C 34.9887,632.337 33.8221,632.67 32.5,632.5C 32.5,631.167 32.5,629.833 32.5,628.5C 31.1667,628.5 29.8333,628.5 28.5,628.5C 28.5,632.5 28.5,636.5 28.5,640.5C 31.1194,640.232 33.6194,640.565 36,641.5C 36.4993,646.489 36.6659,651.489 36.5,656.5C 39.1194,656.232 41.6194,656.565 44,657.5C 44.8015,662.419 44.6349,667.252 43.5,672C 40.6685,672.212 38.0018,672.379 35.5,672.5C 38.228,679.603 36.0613,681.937 29,679.5C 28.7879,676.668 28.6213,674.002 28.5,671.5C 21.5494,674.22 18.8827,671.887 20.5,664.5C 17.8333,664.5 15.1667,664.5 12.5,664.5C 12.5,667.167 12.5,669.833 12.5,672.5C 15.1194,672.232 17.6194,672.565 20,673.5C 20.4993,678.489 20.6659,683.489 20.5,688.5C 25.5111,688.334 30.5111,688.501 35.5,689C 36.435,691.381 36.7683,693.881 36.5,696.5C 38.8568,696.337 41.1902,696.503 43.5,697C 45.9926,703.68 43.6593,706.18 36.5,704.5C 38.1797,711.659 35.6797,713.993 29,711.5C 28.5007,706.511 28.3341,701.511 28.5,696.5C 25.8333,696.5 23.1667,696.5 20.5,696.5C 20.5,701.833 20.5,707.167 20.5,712.5C 22.8568,712.337 25.1902,712.503 27.5,713C 29.9926,719.68 27.6593,722.18 20.5,720.5C 20.5,723.167 20.5,725.833 20.5,728.5C 22.8568,728.337 25.1902,728.503 27.5,729C 29.9926,735.68 27.6593,738.18 20.5,736.5C 20.5,739.167 20.5,741.833 20.5,744.5C 22.8568,744.337 25.1902,744.503 27.5,745C 29.9926,751.68 27.6593,754.18 20.5,752.5C 20.5,755.167 20.5,757.833 20.5,760.5C 27.6593,758.82 29.9926,761.32 27.5,768C 22.5111,768.499 17.5111,768.666 12.5,768.5C 12.5,773.833 12.5,779.167 12.5,784.5C 8.16667,784.5 3.83333,784.5 -0.5,784.5C -0.5,699.167 -0.5,613.833 -0.5,528.5 Z"/></g>
<g><path style="opacity:1" fill="#c92534" d="M 254.5,526.5 C 261.167,526.5 267.833,526.5 274.5,526.5C 274.5,526.833 274.5,527.167 274.5,527.5C 270.799,530.545 267.799,534.212 265.5,538.5C 261.833,534.5 258.167,530.5 254.5,526.5 Z"/></g>
<g><path style="opacity:1" fill="#d21b35" d="M 584.5,527.5 C 628.33,528.499 672.33,528.832 716.5,528.5C 716.5,571.167 716.5,613.833 716.5,656.5C 717.833,656.5 719.167,656.5 720.5,656.5C 720.5,659.167 720.5,661.833 720.5,664.5C 721.833,664.5 723.167,664.5 724.5,664.5C 724.5,667.167 724.5,669.833 724.5,672.5C 721.881,672.232 719.381,672.565 717,673.5C 716.333,678.167 716.333,682.833 717,687.5C 718.011,688.337 719.178,688.67 720.5,688.5C 719.957,700.928 720.623,713.262 722.5,725.5C 721.414,730.043 718.748,731.376 714.5,729.5C 710.194,724.527 705.527,719.86 700.5,715.5C 695.537,708.869 689.87,702.869 683.5,697.5C 679.155,693.153 675.155,688.486 671.5,683.5C 670.37,681.685 669.704,679.685 669.5,677.5C 666.03,676.712 663.363,674.712 661.5,671.5C 660.583,670.873 659.583,670.539 658.5,670.5C 656.5,668.833 654.5,667.167 652.5,665.5C 648.199,659.531 643.199,654.198 637.5,649.5C 629.895,640.226 621.562,631.56 612.5,623.5C 607.225,616.556 601.225,610.223 594.5,604.5C 591.564,599.895 587.898,595.895 583.5,592.5C 580.86,589.194 577.86,586.194 574.5,583.5C 569.559,576.89 563.892,570.89 557.5,565.5C 557.5,565.167 557.5,564.833 557.5,564.5C 556.972,563.153 556.805,561.819 557,560.5C 561.145,559.359 563.478,556.692 564,552.5C 566.905,550.332 569.072,547.666 570.5,544.5C 573.636,541.571 576.303,538.238 578.5,534.5C 579.465,531.233 581.465,528.9 584.5,527.5 Z"/></g>
<g><path style="opacity:1" fill="#d11f39" d="M 716.5,528.5 C 744.167,528.5 771.833,528.5 799.5,528.5C 799.5,618.833 799.5,709.167 799.5,799.5C 792.833,799.5 786.167,799.5 779.5,799.5C 778.833,798.167 777.833,797.167 776.5,796.5C 773.179,791.514 769.179,787.18 764.5,783.5C 760.897,778.558 756.897,773.892 752.5,769.5C 754.467,769.739 756.301,769.406 758,768.5C 757.737,769.951 757.904,771.284 758.5,772.5C 759.799,771.91 760.632,770.91 761,769.5C 764.057,771.138 764.057,772.471 761,773.5C 760.427,777.132 761.261,777.798 763.5,775.5C 764.59,776.391 764.59,777.391 763.5,778.5C 765.336,781.689 767.669,782.189 770.5,780C 768.128,778.529 768.128,777.363 770.5,776.5C 776.338,776.655 782.338,776.655 788.5,776.5C 788.5,773.833 788.5,771.167 788.5,768.5C 781.341,770.18 779.007,767.68 781.5,761C 783.81,760.503 786.143,760.337 788.5,760.5C 788.5,757.833 788.5,755.167 788.5,752.5C 781.341,754.18 779.007,751.68 781.5,745C 783.81,744.503 786.143,744.337 788.5,744.5C 788.5,741.833 788.5,739.167 788.5,736.5C 783.489,736.666 778.489,736.499 773.5,736C 771.007,729.32 773.341,726.82 780.5,728.5C 778.833,721.5 781.5,718.833 788.5,720.5C 788.5,717.833 788.5,715.167 788.5,712.5C 781.893,714.251 779.393,711.918 781,705.5C 786.072,704.529 791.238,704.195 796.5,704.5C 796.5,701.833 796.5,699.167 796.5,696.5C 789.341,698.18 787.007,695.68 789.5,689C 791.81,688.503 794.143,688.337 796.5,688.5C 796.5,685.833 796.5,683.167 796.5,680.5C 791.489,680.666 786.489,680.499 781.5,680C 779.007,673.32 781.341,670.82 788.5,672.5C 788.5,669.833 788.5,667.167 788.5,664.5C 785.833,664.5 783.167,664.5 780.5,664.5C 782.18,671.659 779.68,673.993 773,671.5C 772.503,669.19 772.337,666.857 772.5,664.5C 767.489,664.666 762.489,664.499 757.5,664C 755.007,657.32 757.341,654.82 764.5,656.5C 764.334,651.489 764.501,646.489 765,641.5C 771.68,639.007 774.18,641.341 772.5,648.5C 775.167,648.5 777.833,648.5 780.5,648.5C 778.833,641.5 781.5,638.833 788.5,640.5C 788.5,637.833 788.5,635.167 788.5,632.5C 781.5,634.167 778.833,631.5 780.5,624.5C 777.833,624.5 775.167,624.5 772.5,624.5C 774.18,631.659 771.68,633.993 765,631.5C 764.503,629.19 764.337,626.857 764.5,624.5C 762.167,624.5 759.833,624.5 757.5,624.5C 757.219,622.037 756.219,619.87 754.5,618C 756.612,617.094 757.445,615.594 757,613.5C 755.325,612.405 754.158,610.905 753.5,609C 752.552,608.517 751.552,608.351 750.5,608.5C 751.497,611.328 751.497,613.995 750.5,616.5C 750.994,608.8 747.661,606.467 740.5,609.5C 739.509,610.665 738.509,611.832 737.5,613C 738.924,616.527 740.424,620.027 742,623.5C 744.041,624.423 746.208,624.756 748.5,624.5C 748.721,621.933 749.388,619.599 750.5,617.5C 752.214,621.257 754.214,624.924 756.5,628.5C 756.43,629.772 756.097,630.938 755.5,632C 753.19,632.497 750.857,632.663 748.5,632.5C 748.768,635.119 748.435,637.619 747.5,640C 742.511,640.499 737.511,640.666 732.5,640.5C 732.5,643.167 732.5,645.833 732.5,648.5C 740.174,648.334 747.841,648.5 755.5,649C 756.833,651.333 756.833,653.667 755.5,656C 747.841,656.5 740.174,656.666 732.5,656.5C 732.5,659.167 732.5,661.833 732.5,664.5C 739.494,662.828 742.161,665.494 740.5,672.5C 742.161,679.506 739.494,682.172 732.5,680.5C 732.5,683.167 732.5,685.833 732.5,688.5C 739.659,686.82 741.993,689.32 739.5,696C 737.19,696.497 734.857,696.663 732.5,696.5C 732.5,699.167 732.5,701.833 732.5,704.5C 739.659,702.82 741.993,705.32 739.5,712C 737.19,712.497 734.857,712.663 732.5,712.5C 734.061,722.336 733.395,732.003 730.5,741.5C 731.543,743.856 732.543,746.19 733.5,748.5C 728.833,744.167 724.167,739.833 719.5,735.5C 717.833,733.5 716.167,731.5 714.5,729.5C 718.748,731.376 721.414,730.043 722.5,725.5C 720.623,713.262 719.957,700.928 720.5,688.5C 719.178,688.67 718.011,688.337 717,687.5C 716.333,682.833 716.333,678.167 717,673.5C 719.381,672.565 721.881,672.232 724.5,672.5C 724.5,669.833 724.5,667.167 724.5,664.5C 723.167,664.5 721.833,664.5 720.5,664.5C 720.5,661.833 720.5,659.167 720.5,656.5C 719.167,656.5 717.833,656.5 716.5,656.5C 716.5,613.833 716.5,571.167 716.5,528.5 Z"/></g>
<g><path style="opacity:1" fill="#461c26" d="M 274.5,527.5 C 274.938,527.435 275.272,527.601 275.5,528C 271.931,531.261 269.264,535.094 267.5,539.5C 266.833,539.167 266.167,538.833 265.5,538.5C 267.799,534.212 270.799,530.545 274.5,527.5 Z"/></g>
<g><path style="opacity:1" fill="#9d2262" d="M 578.5,534.5 C 576.303,538.238 573.636,541.571 570.5,544.5C 570.34,542.801 570.506,541.134 571,539.5C 573.9,538.263 576.4,536.596 578.5,534.5 Z"/></g>
<g><path style="opacity:1" fill="#bb204c" d="M 223.5,541.5 C 226.917,543.912 229.584,546.912 231.5,550.5C 228.149,548.146 225.482,545.146 223.5,541.5 Z"/></g>
<g><path style="opacity:1" fill="#3e1f3d" d="M 267.5,539.5 C 271.436,541.766 274.769,544.766 277.5,548.5C 273.564,546.234 270.231,543.234 267.5,539.5 Z"/></g>
<g><path style="opacity:1" fill="#bc2046" d="M 570.5,544.5 C 569.072,547.666 566.905,550.332 564,552.5C 563.478,556.692 561.145,559.359 557,560.5C 556.805,561.819 556.972,563.153 557.5,564.5C 556.167,563.833 555.167,562.833 554.5,561.5C 559.143,555.19 564.477,549.523 570.5,544.5 Z"/></g>
<g><path style="opacity:1" fill="#412028" d="M 242.5,561.5 C 245.465,564.127 248.465,566.794 251.5,569.5C 248.959,568.312 246.459,566.978 244,565.5C 238.755,568.705 233.922,572.371 229.5,576.5C 229.833,575.833 230.167,575.167 230.5,574.5C 234.138,569.86 238.138,565.527 242.5,561.5 Z"/></g>
<g><path style="opacity:1" fill="#7cdce8" d="M 425.5,587.5 C 408.127,590.069 390.793,590.069 373.5,587.5C 373.5,586.5 373.5,585.5 373.5,584.5C 381.479,575.854 389.812,567.521 398.5,559.5C 408.249,568.247 417.249,577.58 425.5,587.5 Z"/></g>
<g><path style="opacity:1" fill="#242423" d="M 554.5,561.5 C 555.167,562.833 556.167,563.833 557.5,564.5C 557.5,564.833 557.5,565.167 557.5,565.5C 562.441,572.11 568.108,578.11 574.5,583.5C 577.86,586.194 580.86,589.194 583.5,592.5C 586.436,597.105 590.102,601.105 594.5,604.5C 595.705,608.373 597.371,612.04 599.5,615.5C 600.258,614.189 601.258,613.689 602.5,614C 605.703,617.371 609.036,620.538 612.5,623.5C 621.562,631.56 629.895,640.226 637.5,649.5C 641.745,655.416 646.745,660.749 652.5,665.5C 654.5,667.167 656.5,668.833 658.5,670.5C 662.175,675.543 666.509,679.876 671.5,683.5C 675.155,688.486 679.155,693.153 683.5,697.5C 686.06,701.57 689.227,705.236 693,708.5C 693.72,710.112 693.554,711.612 692.5,713C 695.164,713.049 697.83,713.882 700.5,715.5C 704.167,721.167 708.833,725.833 714.5,729.5C 716.167,731.5 717.833,733.5 719.5,735.5C 721.091,738.431 723.091,741.098 725.5,743.5C 724.292,744.234 722.959,744.567 721.5,744.5C 720.631,762.818 720.297,781.151 720.5,799.5C 714.833,799.5 709.167,799.5 703.5,799.5C 638.833,731.167 574.167,662.833 509.5,594.5C 525.724,585.129 540.724,574.129 554.5,561.5 Z"/></g>
<g><path style="opacity:1" fill="#4d1820" d="M 557.5,565.5 C 563.892,570.89 569.559,576.89 574.5,583.5C 568.108,578.11 562.441,572.11 557.5,565.5 Z"/></g>
<g><path style="opacity:1" fill="#242423" d="M 251.5,569.5 C 263.055,578.7 275.055,587.367 287.5,595.5C 222.551,663.118 157.885,731.118 93.5,799.5C 87.5,799.5 81.5,799.5 75.5,799.5C 76.5053,779.375 76.672,759.375 76,739.5C 73.5644,742.447 70.7311,744.78 67.5,746.5C 67.8333,745.833 68.1667,745.167 68.5,744.5C 71.8333,739.833 75.8333,735.833 80.5,732.5C 85.3895,727.732 90.0562,722.732 94.5,717.5C 94.8333,716.5 95.5,715.833 96.5,715.5C 98.5869,714.415 99.9202,712.749 100.5,710.5C 101.473,710.013 102.473,709.513 103.5,709C 108.309,703.356 113.309,697.856 118.5,692.5C 118.5,691.167 119.167,690.5 120.5,690.5C 124.212,687.789 127.212,684.456 129.5,680.5C 129.5,679.833 129.833,679.5 130.5,679.5C 137.473,673.194 144.14,666.527 150.5,659.5C 152.525,658.435 154.358,657.102 156,655.5C 158.259,657.851 159.759,657.185 160.5,653.5C 160.069,652.707 159.735,651.873 159.5,651C 162.443,648.279 164.777,645.112 166.5,641.5C 170.457,637.509 174.457,633.509 178.5,629.5C 185.203,623.798 191.203,617.464 196.5,610.5C 203.175,604.824 209.175,598.491 214.5,591.5C 214.427,589.973 215.094,588.973 216.5,588.5C 221.263,584.982 225.597,580.982 229.5,576.5C 233.922,572.371 238.755,568.705 244,565.5C 246.459,566.978 248.959,568.312 251.5,569.5 Z"/></g>
<g><path style="opacity:1" fill="#895249" d="M 313.5,568.5 C 319.941,572.044 326.274,575.711 332.5,579.5C 328.916,578.085 325.249,576.918 321.5,576C 318.279,573.943 314.946,572.109 311.5,570.5C 311.833,569.5 312.5,568.833 313.5,568.5 Z"/></g>
<g><path style="opacity:1" fill="#862130" d="M 230.5,574.5 C 230.167,575.167 229.833,575.833 229.5,576.5C 225.597,580.982 221.263,584.982 216.5,588.5C 220.348,584.051 224.348,579.551 228.5,575C 229.094,574.536 229.761,574.369 230.5,574.5 Z"/></g>
<g><path style="opacity:1" fill="#802e6d" d="M 473.5,576.5 C 470.908,578.715 467.908,580.381 464.5,581.5C 464.833,582.167 465.167,582.833 465.5,583.5C 458.549,584.865 451.549,585.865 444.5,586.5C 454.315,583.889 463.982,580.556 473.5,576.5 Z"/></g>
<g><path style="opacity:1" fill="#92c3e4" d="M 373.5,584.5 C 373.5,585.5 373.5,586.5 373.5,587.5C 390.793,590.069 408.127,590.069 425.5,587.5C 426.167,587.833 426.833,588.167 427.5,588.5C 427.5,588.833 427.5,589.167 427.5,589.5C 408.497,592.143 389.497,592.143 370.5,589.5C 369.833,589.5 369.5,589.167 369.5,588.5C 370.473,586.861 371.806,585.527 373.5,584.5 Z"/></g>
<g><path style="opacity:1" fill="#6e367f" d="M 370.5,589.5 C 389.497,592.143 408.497,592.143 427.5,589.5C 424.146,590.71 420.146,591.877 415.5,593C 410.167,593.167 404.833,593.333 399.5,593.5C 389.391,594.232 379.725,592.898 370.5,589.5 Z"/></g>
<g><path style="opacity:1" fill="#551a1f" d="M 583.5,592.5 C 587.898,595.895 591.564,599.895 594.5,604.5C 590.102,601.105 586.436,597.105 583.5,592.5 Z"/></g>
<g><path style="opacity:1" fill="#5b1c22" d="M 214.5,591.5 C 209.175,598.491 203.175,604.824 196.5,610.5C 197.728,607.925 199.395,605.592 201.5,603.5C 205.926,599.4 210.259,595.4 214.5,591.5 Z"/></g>
<g><path style="opacity:1" fill="#885a36" d="M 509.5,594.5 C 574.167,662.833 638.833,731.167 703.5,799.5C 679.833,799.5 656.167,799.5 632.5,799.5C 631.5,798.167 630.5,796.833 629.5,795.5C 628.5,791.833 626.167,789.5 622.5,788.5C 601.082,767.084 580.082,745.417 559.5,723.5C 556.139,718.139 551.806,713.806 546.5,710.5C 520.498,684.498 494.831,658.165 469.5,631.5C 467.472,627.472 464.472,624.472 460.5,622.5C 458.605,621.027 456.939,619.36 455.5,617.5C 455.5,617.167 455.5,616.833 455.5,616.5C 457.921,616.122 460.254,615.455 462.5,614.5C 469.962,613.249 477.296,611.416 484.5,609C 485.381,608.292 486.047,607.458 486.5,606.5C 489.331,605.921 491.664,604.588 493.5,602.5C 498.523,599.322 503.857,596.655 509.5,594.5 Z"/></g>
<g><path style="opacity:1" fill="#833a5f" d="M 493.5,602.5 C 491.664,604.588 489.331,605.921 486.5,606.5C 481.825,607.965 477.159,609.298 472.5,610.5C 479.023,606.846 486.023,604.18 493.5,602.5 Z"/></g>
<g><path style="opacity:1" fill="#885a36" d="M 287.5,595.5 C 297.54,599.856 307.54,604.19 317.5,608.5C 318.29,609.401 319.29,610.068 320.5,610.5C 321.058,611.79 322.058,612.623 323.5,613C 329.152,614.274 334.819,615.441 340.5,616.5C 338.909,619.431 336.909,622.098 334.5,624.5C 332.906,624.92 331.406,625.586 330,626.5C 329.228,626.355 328.561,626.022 328,625.5C 328.157,630.167 325.991,632.834 321.5,633.5C 321.5,634.833 321.5,636.167 321.5,637.5C 302.803,656.196 284.47,675.196 266.5,694.5C 265.761,694.369 265.094,694.536 264.5,695C 260.663,699.669 256.663,704.169 252.5,708.5C 222.776,738.556 193.442,768.889 164.5,799.5C 140.833,799.5 117.167,799.5 93.5,799.5C 157.885,731.118 222.551,663.118 287.5,595.5 Z"/></g>
<g><path style="opacity:1" fill="#8a5249" d="M 486.5,606.5 C 486.047,607.458 485.381,608.292 484.5,609C 477.296,611.416 469.962,613.249 462.5,614.5C 465.762,613.164 469.095,611.831 472.5,610.5C 477.159,609.298 481.825,607.965 486.5,606.5 Z"/></g>
<g><path style="opacity:1" fill="#d11e37" d="M 752.5,769.5 C 752.167,769.5 751.833,769.5 751.5,769.5C 750.136,767.809 748.803,766.142 747.5,764.5C 745.972,760.373 743.639,756.706 740.5,753.5C 738.71,751.039 736.377,749.373 733.5,748.5C 732.543,746.19 731.543,743.856 730.5,741.5C 733.395,732.003 734.061,722.336 732.5,712.5C 734.857,712.663 737.19,712.497 739.5,712C 741.993,705.32 739.659,702.82 732.5,704.5C 732.5,701.833 732.5,699.167 732.5,696.5C 734.857,696.663 737.19,696.497 739.5,696C 741.993,689.32 739.659,686.82 732.5,688.5C 732.5,685.833 732.5,683.167 732.5,680.5C 739.494,682.172 742.161,679.506 740.5,672.5C 742.161,665.494 739.494,662.828 732.5,664.5C 732.5,661.833 732.5,659.167 732.5,656.5C 740.174,656.666 747.841,656.5 755.5,656C 756.833,653.667 756.833,651.333 755.5,649C 747.841,648.5 740.174,648.334 732.5,648.5C 732.5,645.833 732.5,643.167 732.5,640.5C 737.511,640.666 742.511,640.499 747.5,640C 748.435,637.619 748.768,635.119 748.5,632.5C 750.857,632.663 753.19,632.497 755.5,632C 756.097,630.938 756.43,629.772 756.5,628.5C 754.214,624.924 752.214,621.257 750.5,617.5C 750.5,617.167 750.5,616.833 750.5,616.5C 751.497,613.995 751.497,611.328 750.5,608.5C 751.552,608.351 752.552,608.517 753.5,609C 754.158,610.905 755.325,612.405 757,613.5C 757.445,615.594 756.612,617.094 754.5,618C 756.219,619.87 757.219,622.037 757.5,624.5C 759.833,624.5 762.167,624.5 764.5,624.5C 764.337,626.857 764.503,629.19 765,631.5C 771.68,633.993 774.18,631.659 772.5,624.5C 775.167,624.5 777.833,624.5 780.5,624.5C 778.833,631.5 781.5,634.167 788.5,632.5C 788.5,635.167 788.5,637.833 788.5,640.5C 781.5,638.833 778.833,641.5 780.5,648.5C 777.833,648.5 775.167,648.5 772.5,648.5C 774.18,641.341 771.68,639.007 765,641.5C 764.501,646.489 764.334,651.489 764.5,656.5C 757.341,654.82 755.007,657.32 757.5,664C 762.489,664.499 767.489,664.666 772.5,664.5C 772.337,666.857 772.503,669.19 773,671.5C 779.68,673.993 782.18,671.659 780.5,664.5C 783.167,664.5 785.833,664.5 788.5,664.5C 788.5,667.167 788.5,669.833 788.5,672.5C 781.341,670.82 779.007,673.32 781.5,680C 786.489,680.499 791.489,680.666 796.5,680.5C 796.5,683.167 796.5,685.833 796.5,688.5C 794.143,688.337 791.81,688.503 789.5,689C 787.007,695.68 789.341,698.18 796.5,696.5C 796.5,699.167 796.5,701.833 796.5,704.5C 791.238,704.195 786.072,704.529 781,705.5C 779.393,711.918 781.893,714.251 788.5,712.5C 788.5,715.167 788.5,717.833 788.5,720.5C 781.5,718.833 778.833,721.5 780.5,728.5C 773.341,726.82 771.007,729.32 773.5,736C 778.489,736.499 783.489,736.666 788.5,736.5C 788.5,739.167 788.5,741.833 788.5,744.5C 786.143,744.337 783.81,744.503 781.5,745C 779.007,751.68 781.341,754.18 788.5,752.5C 788.5,755.167 788.5,757.833 788.5,760.5C 786.143,760.337 783.81,760.503 781.5,761C 779.007,767.68 781.341,770.18 788.5,768.5C 788.5,771.167 788.5,773.833 788.5,776.5C 782.338,776.655 776.338,776.655 770.5,776.5C 768.128,777.363 768.128,778.529 770.5,780C 767.669,782.189 765.336,781.689 763.5,778.5C 764.59,777.391 764.59,776.391 763.5,775.5C 761.261,777.798 760.427,777.132 761,773.5C 764.057,772.471 764.057,771.138 761,769.5C 760.632,770.91 759.799,771.91 758.5,772.5C 757.904,771.284 757.737,769.951 758,768.5C 756.301,769.406 754.467,769.739 752.5,769.5 Z"/></g>
<g><path style="opacity:1" fill="#7e3163" d="M 317.5,608.5 C 320.522,608.804 323.522,609.304 326.5,610C 331.383,611.784 336.05,613.618 340.5,615.5C 333.79,613.822 327.123,612.156 320.5,610.5C 319.29,610.068 318.29,609.401 317.5,608.5 Z"/></g>
<g><path style="opacity:1" fill="#391e21" d="M 594.5,604.5 C 601.225,610.223 607.225,616.556 612.5,623.5C 609.036,620.538 605.703,617.371 602.5,614C 601.258,613.689 600.258,614.189 599.5,615.5C 597.371,612.04 595.705,608.373 594.5,604.5 Z"/></g>
<g><path style="opacity:1" fill="#8b4f4b" d="M 320.5,610.5 C 327.123,612.156 333.79,613.822 340.5,615.5C 340.5,615.833 340.5,616.167 340.5,616.5C 334.819,615.441 329.152,614.274 323.5,613C 322.058,612.623 321.058,611.79 320.5,610.5 Z"/></g>
<g><path style="opacity:1" fill="#c91641" d="M 750.5,616.5 C 750.5,616.833 750.5,617.167 750.5,617.5C 749.388,619.599 748.721,621.933 748.5,624.5C 746.208,624.756 744.041,624.423 742,623.5C 740.424,620.027 738.924,616.527 737.5,613C 738.509,611.832 739.509,610.665 740.5,609.5C 747.661,606.467 750.994,608.8 750.5,616.5 Z"/></g>
<g><path style="opacity:1" fill="#5a1c24" d="M 196.5,610.5 C 191.203,617.464 185.203,623.798 178.5,629.5C 183.825,622.509 189.825,616.176 196.5,610.5 Z"/></g>
<g><path style="opacity:1" fill="#7addeb" d="M 340.5,616.5 C 353.868,619.377 367.202,621.71 380.5,623.5C 405.806,625.923 430.806,623.923 455.5,617.5C 456.939,619.36 458.605,621.027 460.5,622.5C 463.167,625.833 466.167,628.833 469.5,631.5C 494.831,658.165 520.498,684.498 546.5,710.5C 550.5,715.167 554.833,719.5 559.5,723.5C 580.082,745.417 601.082,767.084 622.5,788.5C 624.5,791.167 626.833,793.5 629.5,795.5C 630.5,796.833 631.5,798.167 632.5,799.5C 606.5,799.5 580.5,799.5 554.5,799.5C 553.027,797.605 551.36,795.939 549.5,794.5C 547.5,790.5 544.5,787.5 540.5,785.5C 539.833,784.833 539.167,784.167 538.5,783.5C 535.5,778.5 531.5,774.5 526.5,771.5C 517.901,761.233 508.568,751.566 498.5,742.5C 485.385,728.589 472.052,714.922 458.5,701.5C 456.833,697.833 454.167,695.167 450.5,693.5C 445.833,688.5 441.167,683.5 436.5,678.5C 434.833,674.833 432.167,672.167 428.5,670.5C 422.36,663.405 415.694,656.739 408.5,650.5C 406.221,648.041 404.054,645.374 402,642.5C 400.534,640.675 398.701,640.175 396.5,641C 391.898,645.094 387.898,649.594 384.5,654.5C 381.596,655.614 379.596,657.614 378.5,660.5C 375.647,662.427 373.314,664.927 371.5,668C 370.5,668.333 369.5,668.667 368.5,669C 365.688,672.176 363.022,675.343 360.5,678.5C 357.963,679.976 355.963,681.976 354.5,684.5C 348.856,690.139 342.856,695.472 336.5,700.5C 332.453,705.538 328.453,710.538 324.5,715.5C 320.434,718.563 317.101,722.229 314.5,726.5C 313.761,726.369 313.094,726.536 312.5,727C 309.253,729.741 306.586,732.908 304.5,736.5C 300.167,738.833 296.833,742.167 294.5,746.5C 290.833,748.167 288.167,750.833 286.5,754.5C 283.544,757.279 280.377,759.946 277,762.5C 269.271,770.724 261.771,779.057 254.5,787.5C 249.5,790.5 245.5,794.5 242.5,799.5C 216.5,799.5 190.5,799.5 164.5,799.5C 193.442,768.889 222.776,738.556 252.5,708.5C 258.775,705.559 263.442,700.892 266.5,694.5C 284.47,675.196 302.803,656.196 321.5,637.5C 326.07,633.318 330.403,628.984 334.5,624.5C 336.909,622.098 338.909,619.431 340.5,616.5 Z"/></g>
<g><path style="opacity:1" fill="#6a3a7f" d="M 340.5,616.5 C 340.5,616.167 340.5,615.833 340.5,615.5C 351.284,616.681 361.95,618.514 372.5,621C 394.328,621.997 415.995,621.497 437.5,619.5C 429.779,621.627 421.779,622.794 413.5,623C 402.505,623.5 391.505,623.667 380.5,623.5C 367.202,621.71 353.868,619.377 340.5,616.5 Z"/></g>
<g><path style="opacity:1" fill="#97c4e7" d="M 455.5,616.5 C 455.5,616.833 455.5,617.167 455.5,617.5C 430.806,623.923 405.806,625.923 380.5,623.5C 391.505,623.667 402.505,623.5 413.5,623C 421.779,622.794 429.779,621.627 437.5,619.5C 443.546,618.757 449.546,617.757 455.5,616.5 Z"/></g>
<g><path style="opacity:1" fill="#74715f" d="M 460.5,622.5 C 464.472,624.472 467.472,627.472 469.5,631.5C 466.167,628.833 463.167,625.833 460.5,622.5 Z"/></g>
<g><path style="opacity:1" fill="#982131" d="M 178.5,629.5 C 174.457,633.509 170.457,637.509 166.5,641.5C 168.428,639.219 169.428,636.553 169.5,633.5C 170.873,633.657 172.207,633.49 173.5,633C 174.789,631.198 176.456,630.031 178.5,629.5 Z"/></g>
<g><path style="opacity:1" fill="#7b694e" d="M 334.5,624.5 C 330.403,628.984 326.07,633.318 321.5,637.5C 321.5,636.167 321.5,634.833 321.5,633.5C 325.991,632.834 328.157,630.167 328,625.5C 328.561,626.022 329.228,626.355 330,626.5C 331.406,625.586 332.906,624.92 334.5,624.5 Z"/></g>
<g><path style="opacity:1" fill="#feb0c9" d="M 408.5,650.5 C 415.694,656.739 422.36,663.405 428.5,670.5C 430.833,673.5 433.5,676.167 436.5,678.5C 441.167,683.5 445.833,688.5 450.5,693.5C 452.833,696.5 455.5,699.167 458.5,701.5C 472.052,714.922 485.385,728.589 498.5,742.5C 507.188,752.854 516.522,762.521 526.5,771.5C 530.167,775.833 534.167,779.833 538.5,783.5C 539.167,784.167 539.833,784.833 540.5,785.5C 543.167,788.833 546.167,791.833 549.5,794.5C 551.36,795.939 553.027,797.605 554.5,799.5C 528.167,799.5 501.833,799.5 475.5,799.5C 450.19,772.856 424.523,746.523 398.5,720.5C 372.477,746.523 346.81,772.856 321.5,799.5C 295.833,799.5 270.167,799.5 244.5,799.5C 247.539,795.139 250.873,791.139 254.5,787.5C 262.855,779.311 271.355,771.311 280,763.5C 282.385,760.621 284.552,757.621 286.5,754.5C 287.5,754.5 288.5,754.5 289.5,754.5C 289.22,751.612 290.553,750.112 293.5,750C 295.833,747.667 298.167,745.333 300.5,743C 304.777,743.475 307.777,741.808 309.5,738C 308.5,737.167 307.5,736.333 306.5,735.5C 306.709,734.914 307.043,734.414 307.5,734C 311.348,733.456 314.015,734.956 315.5,738.5C 315.833,737.833 316.167,737.167 316.5,736.5C 314.528,733.301 313.861,729.968 314.5,726.5C 317.101,722.229 320.434,718.563 324.5,715.5C 333.8,706.034 343.3,696.701 353,687.5C 353.513,686.473 354.013,685.473 354.5,684.5C 355.963,681.976 357.963,679.976 360.5,678.5C 368.164,674.169 374.164,668.169 378.5,660.5C 379.596,657.614 381.596,655.614 384.5,654.5C 389.146,650.188 393.813,645.855 398.5,641.5C 401.225,645.228 404.559,648.228 408.5,650.5 Z"/></g>
<g><path style="opacity:1" fill="#d2c1d6" d="M 408.5,650.5 C 404.559,648.228 401.225,645.228 398.5,641.5C 393.813,645.855 389.146,650.188 384.5,654.5C 387.898,649.594 391.898,645.094 396.5,641C 398.701,640.175 400.534,640.675 402,642.5C 404.054,645.374 406.221,648.041 408.5,650.5 Z"/></g>
<g><path style="opacity:1" fill="#3b2022" d="M 166.5,641.5 C 164.777,645.112 162.443,648.279 159.5,651C 159.735,651.873 160.069,652.707 160.5,653.5C 159.759,657.185 158.259,657.851 156,655.5C 154.358,657.102 152.525,658.435 150.5,659.5C 150.5,659.167 150.5,658.833 150.5,658.5C 155.573,652.432 160.906,646.766 166.5,641.5 Z"/></g>
<g><path style="opacity:1" fill="#491b1f" d="M 637.5,649.5 C 643.199,654.198 648.199,659.531 652.5,665.5C 646.745,660.749 641.745,655.416 637.5,649.5 Z"/></g>
<g><path style="opacity:1" fill="#89232f" d="M 150.5,658.5 C 150.5,658.833 150.5,659.167 150.5,659.5C 144.14,666.527 137.473,673.194 130.5,679.5C 132.428,677.219 133.428,674.553 133.5,671.5C 134.873,671.657 136.207,671.49 137.5,671C 141.063,665.935 145.397,661.768 150.5,658.5 Z"/></g>
<g><path style="opacity:1" fill="#e2bbd0" d="M 378.5,660.5 C 374.164,668.169 368.164,674.169 360.5,678.5C 363.022,675.343 365.688,672.176 368.5,669C 369.5,668.667 370.5,668.333 371.5,668C 373.314,664.927 375.647,662.427 378.5,660.5 Z"/></g>
<g><path style="opacity:1" fill="#b4cadb" d="M 428.5,670.5 C 432.167,672.167 434.833,674.833 436.5,678.5C 433.5,676.167 430.833,673.5 428.5,670.5 Z"/></g>
<g><path style="opacity:1" fill="#af2537" d="M 658.5,670.5 C 659.583,670.539 660.583,670.873 661.5,671.5C 663.363,674.712 666.03,676.712 669.5,677.5C 669.704,679.685 670.37,681.685 671.5,683.5C 666.509,679.876 662.175,675.543 658.5,670.5 Z"/></g>
<g><path style="opacity:1" fill="#611e25" d="M 129.5,680.5 C 127.212,684.456 124.212,687.789 120.5,690.5C 122.423,687.397 124.59,684.397 127,681.5C 127.671,680.748 128.504,680.414 129.5,680.5 Z"/></g>
<g><path style="opacity:1" fill="#bdc8db" d="M 450.5,693.5 C 454.167,695.167 456.833,697.833 458.5,701.5C 455.5,699.167 452.833,696.5 450.5,693.5 Z"/></g>
<g><path style="opacity:1" fill="#6c2029" d="M 118.5,692.5 C 113.309,697.856 108.309,703.356 103.5,709C 102.473,709.513 101.473,710.013 100.5,710.5C 105.683,704.719 111.017,698.885 116.5,693C 117.094,692.536 117.761,692.369 118.5,692.5 Z"/></g>
<g><path style="opacity:1" fill="#8ac3c2" d="M 266.5,694.5 C 263.442,700.892 258.775,705.559 252.5,708.5C 256.663,704.169 260.663,699.669 264.5,695C 265.094,694.536 265.761,694.369 266.5,694.5 Z"/></g>
<g><path style="opacity:1" fill="#b8c8db" d="M 354.5,684.5 C 354.013,685.473 353.513,686.473 353,687.5C 343.3,696.701 333.8,706.034 324.5,715.5C 328.453,710.538 332.453,705.538 336.5,700.5C 342.856,695.472 348.856,690.139 354.5,684.5 Z"/></g>
<g><path style="opacity:1" fill="#3e1e21" d="M 683.5,697.5 C 689.87,702.869 695.537,708.869 700.5,715.5C 697.83,713.882 695.164,713.049 692.5,713C 693.554,711.612 693.72,710.112 693,708.5C 689.227,705.236 686.06,701.57 683.5,697.5 Z"/></g>
<g><path style="opacity:1" fill="#716d55" d="M 546.5,710.5 C 551.806,713.806 556.139,718.139 559.5,723.5C 554.833,719.5 550.5,715.167 546.5,710.5 Z"/></g>
<g><path style="opacity:1" fill="#661b21" d="M 100.5,710.5 C 99.9202,712.749 98.5869,714.415 96.5,715.5C 97.0798,713.251 98.4131,711.585 100.5,710.5 Z"/></g>
<g><path style="opacity:1" fill="#5e1e24" d="M 700.5,715.5 C 705.527,719.86 710.194,724.527 714.5,729.5C 708.833,725.833 704.167,721.167 700.5,715.5 Z"/></g>
<g><path style="opacity:1" fill="#711f28" d="M 94.5,717.5 C 90.0562,722.732 85.3895,727.732 80.5,732.5C 82.4233,729.397 84.59,726.397 87,723.5C 89.1057,720.882 91.6057,718.882 94.5,717.5 Z"/></g>
<g><path style="opacity:1" fill="#fefefe" d="M 475.5,799.5 C 424.167,799.5 372.833,799.5 321.5,799.5C 346.81,772.856 372.477,746.523 398.5,720.5C 424.523,746.523 450.19,772.856 475.5,799.5 Z"/></g>
<g><path style="opacity:1" fill="#f1b5ca" d="M 314.5,726.5 C 313.861,729.968 314.528,733.301 316.5,736.5C 316.167,737.167 315.833,737.833 315.5,738.5C 314.015,734.956 311.348,733.456 307.5,734C 307.043,734.414 306.709,734.914 306.5,735.5C 307.5,736.333 308.5,737.167 309.5,738C 307.777,741.808 304.777,743.475 300.5,743C 298.167,745.333 295.833,747.667 293.5,750C 290.553,750.112 289.22,751.612 289.5,754.5C 288.5,754.5 287.5,754.5 286.5,754.5C 288.167,750.833 290.833,748.167 294.5,746.5C 298.167,743.5 301.5,740.167 304.5,736.5C 306.586,732.908 309.253,729.741 312.5,727C 313.094,726.536 313.761,726.369 314.5,726.5 Z"/></g>
<g><path style="opacity:1" fill="#562825" d="M 719.5,735.5 C 724.167,739.833 728.833,744.167 733.5,748.5C 734.11,749.391 734.443,750.391 734.5,751.5C 731.5,748.833 728.5,746.167 725.5,743.5C 723.091,741.098 721.091,738.431 719.5,735.5 Z"/></g>
<g><path style="opacity:1" fill="#c1c4d9" d="M 304.5,736.5 C 301.5,740.167 298.167,743.5 294.5,746.5C 296.833,742.167 300.167,738.833 304.5,736.5 Z"/></g>
<g><path style="opacity:1" fill="#d5c0d3" d="M 498.5,742.5 C 508.568,751.566 517.901,761.233 526.5,771.5C 516.522,762.521 507.188,752.854 498.5,742.5 Z"/></g>
<g><path style="opacity:1" fill="#892734" d="M 68.5,744.5 C 68.1667,745.167 67.8333,745.833 67.5,746.5C 65.8333,747.833 64.1667,749.167 62.5,750.5C 63.5,747.5 65.5,745.5 68.5,744.5 Z"/></g>
<g><path style="opacity:1" fill="#222c26" d="M 725.5,743.5 C 728.5,746.167 731.5,748.833 734.5,751.5C 739.194,755.527 743.527,759.86 747.5,764.5C 748.803,766.142 750.136,767.809 751.5,769.5C 755.105,774.774 759.438,779.441 764.5,783.5C 767.792,788.46 771.792,792.793 776.5,796.5C 777.833,797.167 778.833,798.167 779.5,799.5C 759.833,799.5 740.167,799.5 720.5,799.5C 720.297,781.151 720.631,762.818 721.5,744.5C 722.959,744.567 724.292,744.234 725.5,743.5 Z"/></g>
<g><path style="opacity:1" fill="#b5263c" d="M 733.5,748.5 C 736.377,749.373 738.71,751.039 740.5,753.5C 743.639,756.706 745.972,760.373 747.5,764.5C 743.527,759.86 739.194,755.527 734.5,751.5C 734.443,750.391 734.11,749.391 733.5,748.5 Z"/></g>
<g><path style="opacity:1" fill="#222b26" d="M 75.5,799.5 C 56.8333,799.5 38.1667,799.5 19.5,799.5C 19.3505,798.448 19.5172,797.448 20,796.5C 23.0738,794.929 25.2405,792.596 26.5,789.5C 30.515,786.484 33.8483,782.817 36.5,778.5C 41.1985,777.135 44.1985,774.135 45.5,769.5C 46.5,769.5 47.5,769.5 48.5,769.5C 48.5,770.5 48.5,771.5 48.5,772.5C 49.9778,772.762 51.3112,772.429 52.5,771.5C 51.0499,770.15 50.3832,768.484 50.5,766.5C 52.5,767.167 54.5,767.833 56.5,768.5C 56.3359,765.813 56.5026,763.146 57,760.5C 60.3278,755.677 63.8278,751.01 67.5,746.5C 70.7311,744.78 73.5644,742.447 76,739.5C 76.672,759.375 76.5053,779.375 75.5,799.5 Z"/></g>
<g><path style="opacity:1" fill="#2f2725" d="M 67.5,746.5 C 63.8278,751.01 60.3278,755.677 57,760.5C 56.5026,763.146 56.3359,765.813 56.5,768.5C 54.5,767.833 52.5,767.167 50.5,766.5C 50.3832,768.484 51.0499,770.15 52.5,771.5C 51.3112,772.429 49.9778,772.762 48.5,772.5C 48.5,771.5 48.5,770.5 48.5,769.5C 47.5,769.5 46.5,769.5 45.5,769.5C 44.1985,774.135 41.1985,777.135 36.5,778.5C 40.1102,773.887 44.1102,769.553 48.5,765.5C 53.2077,761.793 57.2077,757.46 60.5,752.5C 61.5,752.167 62.1667,751.5 62.5,750.5C 64.1667,749.167 65.8333,747.833 67.5,746.5 Z"/></g>
<g><path style="opacity:1" fill="#852430" d="M 60.5,752.5 C 57.2077,757.46 53.2077,761.793 48.5,765.5C 50.7589,762.062 53.2589,758.729 56,755.5C 57.129,753.859 58.629,752.859 60.5,752.5 Z"/></g>
<g><path style="opacity:1" fill="#c0c7d9" d="M 526.5,771.5 C 531.5,774.5 535.5,778.5 538.5,783.5C 534.167,779.833 530.167,775.833 526.5,771.5 Z"/></g>
<g><path style="opacity:1" fill="#592425" d="M 751.5,769.5 C 751.833,769.5 752.167,769.5 752.5,769.5C 756.897,773.892 760.897,778.558 764.5,783.5C 759.438,779.441 755.105,774.774 751.5,769.5 Z"/></g>
<g><path style="opacity:1" fill="#c7c4d6" d="M 286.5,754.5 C 284.552,757.621 282.385,760.621 280,763.5C 271.355,771.311 262.855,779.311 254.5,787.5C 261.771,779.057 269.271,770.724 277,762.5C 280.377,759.946 283.544,757.279 286.5,754.5 Z"/></g>
<g><path style="opacity:1" fill="#b8c9da" d="M 540.5,785.5 C 544.5,787.5 547.5,790.5 549.5,794.5C 546.167,791.833 543.167,788.833 540.5,785.5 Z"/></g>
<g><path style="opacity:1" fill="#4b2322" d="M 764.5,783.5 C 769.179,787.18 773.179,791.514 776.5,796.5C 771.792,792.793 767.792,788.46 764.5,783.5 Z"/></g>
<g><path style="opacity:1" fill="#69222a" d="M 36.5,778.5 C 33.8483,782.817 30.515,786.484 26.5,789.5C 29.1231,785.209 32.4564,781.543 36.5,778.5 Z"/></g>
<g><path style="opacity:1" fill="#78705a" d="M 622.5,788.5 C 626.167,789.5 628.5,791.833 629.5,795.5C 626.833,793.5 624.5,791.167 622.5,788.5 Z"/></g>
<g><path style="opacity:1" fill="#512323" d="M 26.5,789.5 C 25.2405,792.596 23.0738,794.929 20,796.5C 19.5172,797.448 19.3505,798.448 19.5,799.5C 18.5,799.5 17.5,799.5 16.5,799.5C 18.93,795.281 22.2634,791.947 26.5,789.5 Z"/></g>
<g><path style="opacity:1" fill="#d6bfd5" d="M 254.5,787.5 C 250.873,791.139 247.539,795.139 244.5,799.5C 243.833,799.5 243.167,799.5 242.5,799.5C 245.5,794.5 249.5,790.5 254.5,787.5 Z"/></g>
</svg>
